<svg width="628" height="75" viewBox="0 0 628 75" fill="none" xmlns="http://www.w3.org/2000/svg">
<mask id="path-1-outside-1_271_47" maskUnits="userSpaceOnUse" x="0" y="0" width="628" height="75" fill="black">
<rect fill="white" width="628" height="75"/>
<path d="M3.1095 72L32.7735 4.8H49.7655L79.2375 72H58.5015L44.8695 40.32C44.1655 38.528 43.5255 36.96 42.9495 35.616C42.4375 34.208 41.9575 32.896 41.5095 31.68C41.1255 30.4 40.7415 29.12 40.3575 27.84C39.9735 26.496 39.5895 25.024 39.2055 23.424H42.8535C42.5335 25.088 42.1495 26.592 41.7015 27.936C41.3175 29.28 40.9015 30.56 40.4535 31.776C40.0055 32.992 39.4935 34.272 38.9175 35.616C38.3415 36.96 37.7015 38.528 36.9975 40.32L23.3655 72H3.1095ZM17.6055 62.4L23.8455 48.288H58.6935L63.1095 62.4H17.6055ZM90.819 72V4.8H125.187C130.563 4.8 135.075 5.472 138.723 6.816C142.435 8.16 145.251 10.048 147.171 12.48C149.155 14.912 150.147 17.76 150.147 21.024C150.147 24.992 149.155 28.32 147.171 31.008C145.187 33.632 142.243 35.392 138.339 36.288V34.56C141.219 35.264 143.811 36.352 146.115 37.824C148.419 39.296 150.243 41.152 151.587 43.392C152.995 45.632 153.699 48.256 153.699 51.264C153.699 55.04 152.931 58.272 151.395 60.96C149.859 63.584 147.779 65.728 145.155 67.392C142.595 68.992 139.715 70.176 136.515 70.944C133.379 71.648 130.115 72 126.723 72H90.819ZM110.019 55.68H126.531C127.939 55.68 129.155 55.488 130.179 55.104C131.203 54.72 132.003 54.112 132.579 53.28C133.219 52.384 133.539 51.296 133.539 50.016C133.539 48.672 133.155 47.648 132.387 46.944C131.683 46.176 130.755 45.632 129.603 45.312C128.515 44.928 127.331 44.736 126.051 44.736H110.019V55.68ZM110.019 30.912H122.595C124.195 30.912 125.539 30.72 126.627 30.336C127.779 29.952 128.611 29.408 129.123 28.704C129.699 27.936 129.987 27.008 129.987 25.92C129.987 24.384 129.315 23.2 127.971 22.368C126.691 21.536 124.835 21.12 122.403 21.12H110.019V30.912ZM206.866 72.96C201.042 72.96 195.73 72.096 190.93 70.368C186.194 68.64 182.034 66.208 178.45 63.072C174.93 59.872 172.21 56.16 170.29 51.936C168.434 47.648 167.506 42.976 167.506 37.92C167.506 32.864 168.434 28.224 170.29 24C172.21 19.712 174.93 16 178.45 12.864C182.034 9.664 186.194 7.2 190.93 5.472C195.73 3.744 201.01 2.88 206.77 2.88C212.53 2.88 217.778 3.744 222.514 5.472C227.314 7.2 231.474 9.664 234.994 12.864C238.514 16 241.234 19.712 243.154 24C245.074 28.224 246.034 32.832 246.034 37.824C246.034 42.88 245.074 47.552 243.154 51.84C241.234 56.128 238.514 59.872 234.994 63.072C231.474 66.208 227.314 68.64 222.514 70.368C217.778 72.096 212.562 72.96 206.866 72.96ZM206.77 53.76C209.394 53.76 211.794 53.376 213.97 52.608C216.21 51.84 218.162 50.752 219.826 49.344C221.49 47.872 222.738 46.176 223.57 44.256C224.466 42.336 224.914 40.224 224.914 37.92C224.914 35.616 224.466 33.504 223.57 31.584C222.738 29.664 221.49 28 219.826 26.592C218.162 25.12 216.21 24 213.97 23.232C211.794 22.464 209.394 22.08 206.77 22.08C204.146 22.08 201.714 22.464 199.474 23.232C197.298 24 195.378 25.12 193.714 26.592C192.05 28.064 190.77 29.76 189.874 31.68C189.042 33.6 188.626 35.68 188.626 37.92C188.626 40.224 189.042 42.336 189.874 44.256C190.77 46.112 192.05 47.776 193.714 49.248C195.378 50.72 197.298 51.84 199.474 52.608C201.714 53.376 204.146 53.76 206.77 53.76ZM296.426 72.576C289.962 72.576 284.266 71.328 279.338 68.832C274.474 66.336 270.666 62.912 267.914 58.56C265.162 54.208 263.786 49.248 263.786 43.68V4.8H284.714V43.008C284.714 45.312 285.194 47.36 286.154 49.152C287.178 50.944 288.554 52.352 290.282 53.376C292.074 54.4 294.122 54.912 296.426 54.912C298.858 54.912 300.97 54.4 302.762 53.376C304.554 52.352 305.962 50.944 306.986 49.152C308.074 47.36 308.618 45.312 308.618 43.008V4.8H329.066V43.68C329.066 49.248 327.69 54.208 324.938 58.56C322.186 62.912 318.346 66.336 313.418 68.832C308.554 71.328 302.89 72.576 296.426 72.576ZM368.738 72V22.464H345.314V4.8H413.474V22.464H389.474V72H368.738ZM471.257 72V4.8H489.113L515.993 43.872L501.977 43.776L529.145 4.8H546.617V72H526.649V55.584C526.649 50.016 526.777 44.928 527.033 40.32C527.353 35.648 527.865 30.976 528.569 26.304L530.777 32.544L511.961 57.888H505.625L486.905 32.352L489.305 26.304C490.009 30.848 490.489 35.424 490.745 40.032C491.065 44.576 491.225 49.76 491.225 55.584V72H471.257ZM568.475 72V4.8H624.059V21.6H588.347V55.2H625.787V72H568.475ZM578.747 45.888V30.144H620.507V45.888H578.747Z"/>
</mask>
<path d="M3.1095 72L1.27983 71.1923L0.0404506 74H3.1095V72ZM32.7735 4.8V2.8H31.4702L30.9438 3.99233L32.7735 4.8ZM49.7655 4.8L51.5971 3.99671L51.0723 2.8H49.7655V4.8ZM79.2375 72V74H82.2985L81.0691 71.1967L79.2375 72ZM58.5015 72L56.6644 72.7905L57.1848 74H58.5015V72ZM44.8695 40.32L43.008 41.0513L43.0197 41.0811L43.0324 41.1105L44.8695 40.32ZM42.9495 35.616L41.0699 36.2995L41.0891 36.3522L41.1112 36.4038L42.9495 35.616ZM41.5095 31.68L39.5938 32.2547L39.6115 32.3137L39.6328 32.3714L41.5095 31.68ZM40.3575 27.84L38.4345 28.3894L38.4381 28.4021L38.4418 28.4147L40.3575 27.84ZM39.2055 23.424V21.424H36.6687L37.2607 23.8907L39.2055 23.424ZM42.8535 23.424L44.8175 23.8017L45.2748 21.424H42.8535V23.424ZM41.7015 27.936L39.8041 27.3035L39.7904 27.3448L39.7785 27.3866L41.7015 27.936ZM40.4535 31.776L38.5768 31.0846L38.5768 31.0846L40.4535 31.776ZM36.9975 40.32L38.8346 41.1105L38.8473 41.0811L38.859 41.0513L36.9975 40.32ZM23.3655 72V74H24.6822L25.2026 72.7905L23.3655 72ZM17.6055 62.4L15.7763 61.5912L14.5343 64.4H17.6055V62.4ZM23.8455 48.288V46.288H22.5431L22.0163 47.4792L23.8455 48.288ZM58.6935 48.288L60.6022 47.6907L60.1633 46.288H58.6935V48.288ZM63.1095 62.4V64.4H65.831L65.0182 61.8027L63.1095 62.4ZM4.93917 72.8077L34.6032 5.60766L30.9438 3.99233L1.27983 71.1923L4.93917 72.8077ZM32.7735 6.8H49.7655V2.8H32.7735V6.8ZM47.9339 5.60328L77.4059 72.8033L81.0691 71.1967L51.5971 3.99671L47.9339 5.60328ZM79.2375 70H58.5015V74H79.2375V70ZM60.3386 71.2095L46.7066 39.5295L43.0324 41.1105L56.6644 72.7905L60.3386 71.2095ZM46.731 39.5887C46.0217 37.7833 45.3739 36.1957 44.7878 34.8282L41.1112 36.4038C41.6771 37.7243 42.3093 39.2727 43.008 41.0513L46.731 39.5887ZM44.8291 34.9325C44.3163 33.5223 43.8353 32.2076 43.3862 30.9886L39.6328 32.3714C40.0797 33.5844 40.5587 34.8937 41.0699 36.2995L44.8291 34.9325ZM43.4252 31.1053C43.0412 29.8253 42.6572 28.5453 42.2732 27.2653L38.4418 28.4147C38.8258 29.6947 39.2098 30.9747 39.5938 32.2547L43.4252 31.1053ZM42.2805 27.2906C41.9056 25.9782 41.5288 24.5342 41.1503 22.9572L37.2607 23.8907C37.6503 25.5138 38.0414 27.0138 38.4345 28.3894L42.2805 27.2906ZM39.2055 25.424H42.8535V21.424H39.2055V25.424ZM40.8895 23.0463C40.583 24.6402 40.2196 26.0572 39.8041 27.3035L43.5989 28.5685C44.0794 27.1268 44.484 25.5358 44.8175 23.8017L40.8895 23.0463ZM39.7785 27.3866C39.4071 28.6864 39.0063 29.9188 38.5768 31.0846L42.3302 32.4674C42.7967 31.2012 43.2279 29.8736 43.6245 28.4854L39.7785 27.3866ZM38.5768 31.0846C38.1422 32.2643 37.6433 33.512 37.0792 34.8282L40.7558 36.4038C41.3437 35.032 41.8688 33.7197 42.3302 32.4674L38.5768 31.0846ZM37.0792 34.8282C36.4931 36.1957 35.8453 37.7833 35.136 39.5887L38.859 41.0513C39.5577 39.2727 40.1899 37.7243 40.7558 36.4038L37.0792 34.8282ZM35.1604 39.5295L21.5284 71.2095L25.2026 72.7905L38.8346 41.1105L35.1604 39.5295ZM23.3655 70H3.1095V74H23.3655V70ZM19.4347 63.2088L25.6747 49.0968L22.0163 47.4792L15.7763 61.5912L19.4347 63.2088ZM23.8455 50.288H58.6935V46.288H23.8455V50.288ZM56.7848 48.8853L61.2008 62.9973L65.0182 61.8027L60.6022 47.6907L56.7848 48.8853ZM63.1095 60.4H17.6055V64.4H63.1095V60.4ZM90.819 72H88.819V74H90.819V72ZM90.819 4.8V2.8H88.819V4.8H90.819ZM138.723 6.816L138.032 8.69271L138.042 8.69653L138.723 6.816ZM147.171 12.48L145.601 13.7193L145.611 13.7319L145.621 13.7443L147.171 12.48ZM147.171 31.008L148.766 32.2142L148.773 32.205L148.78 32.1957L147.171 31.008ZM138.339 36.288H136.339V38.799L138.786 38.2373L138.339 36.288ZM138.339 34.56L138.814 32.6172L136.339 32.0122V34.56H138.339ZM146.115 37.824L147.192 36.1386L147.192 36.1386L146.115 37.824ZM151.587 43.392L149.872 44.421L149.883 44.4388L149.894 44.4563L151.587 43.392ZM151.395 60.96L153.121 61.9704L153.126 61.9613L153.131 61.9523L151.395 60.96ZM145.155 67.392L146.215 69.088L146.226 69.081L145.155 67.392ZM136.515 70.944L136.953 72.8954L136.967 72.8922L136.982 72.8888L136.515 70.944ZM110.019 55.68H108.019V57.68H110.019V55.68ZM130.179 55.104L130.881 56.9767L130.881 56.9767L130.179 55.104ZM132.579 53.28L130.952 52.1175L130.943 52.1295L130.935 52.1416L132.579 53.28ZM132.387 46.944L130.913 48.2955L130.971 48.3595L131.036 48.4183L132.387 46.944ZM129.603 45.312L128.937 47.198L129.002 47.2207L129.068 47.239L129.603 45.312ZM110.019 44.736V42.736H108.019V44.736H110.019ZM110.019 30.912H108.019V32.912H110.019V30.912ZM126.627 30.336L125.995 28.4386L125.978 28.4442L125.961 28.45L126.627 30.336ZM129.123 28.704L127.523 27.504L127.514 27.5158L127.506 27.5277L129.123 28.704ZM127.971 22.368L126.881 24.0449L126.9 24.0569L126.918 24.0685L127.971 22.368ZM110.019 21.12V19.12H108.019V21.12H110.019ZM92.819 72V4.8H88.819V72H92.819ZM90.819 6.8H125.187V2.8H90.819V6.8ZM125.187 6.8C130.411 6.8 134.672 7.45492 138.032 8.69268L139.414 4.93931C135.478 3.48908 130.715 2.8 125.187 2.8V6.8ZM138.042 8.69653C141.499 9.94807 143.967 11.6498 145.601 13.7193L148.741 11.2407C146.535 8.44617 143.371 6.37192 139.404 4.93547L138.042 8.69653ZM145.621 13.7443C147.302 15.8041 148.147 18.2008 148.147 21.024H152.147C152.147 17.3192 151.008 14.0199 148.721 11.2157L145.621 13.7443ZM148.147 21.024C148.147 24.6471 147.247 27.5373 145.562 29.8203L148.78 32.1957C151.063 29.1027 152.147 25.3369 152.147 21.024H148.147ZM145.576 29.8018C143.933 31.9741 141.441 33.5241 137.892 34.3387L138.786 38.2373C143.045 37.2599 146.441 35.2899 148.766 32.2142L145.576 29.8018ZM140.339 36.288V34.56H136.339V36.288H140.339ZM137.864 36.5028C140.549 37.159 142.934 38.1652 145.038 39.5094L147.192 36.1386C144.688 34.5388 141.889 33.369 138.814 32.6172L137.864 36.5028ZM145.038 39.5094C147.094 40.8229 148.695 42.4586 149.872 44.421L153.302 42.363C151.791 39.8454 149.744 37.7691 147.192 36.1386L145.038 39.5094ZM149.894 44.4563C151.075 46.3355 151.699 48.5797 151.699 51.264H155.699C155.699 47.9323 154.915 44.9285 153.28 42.3277L149.894 44.4563ZM151.699 51.264C151.699 54.768 150.988 57.6417 149.659 59.9677L153.131 61.9523C154.874 58.9023 155.699 55.312 155.699 51.264H151.699ZM149.669 59.9496C148.298 62.2923 146.445 64.2059 144.084 65.703L146.226 69.081C149.113 67.2501 151.42 64.8757 153.121 61.9704L149.669 59.9496ZM144.095 65.696C141.734 67.1718 139.057 68.2771 136.048 68.9992L136.982 72.8888C140.373 72.0749 143.456 70.8122 146.215 69.088L144.095 65.696ZM136.077 68.9926C133.092 69.6626 129.976 70 126.723 70V74C130.254 74 133.666 73.6334 136.953 72.8954L136.077 68.9926ZM126.723 70H90.819V74H126.723V70ZM110.019 57.68H126.531V53.68H110.019V57.68ZM126.531 57.68C128.113 57.68 129.579 57.4652 130.881 56.9767L129.477 53.2313C128.731 53.5108 127.765 53.68 126.531 53.68V57.68ZM130.881 56.9767C132.254 56.4617 133.397 55.6128 134.223 54.4184L130.935 52.1416C130.609 52.6112 130.152 52.9783 129.477 53.2313L130.881 56.9767ZM134.206 54.4425C135.126 53.1545 135.539 51.6429 135.539 50.016H131.539C131.539 50.9491 131.312 51.6135 130.952 52.1175L134.206 54.4425ZM135.539 50.016C135.539 48.2837 135.032 46.6551 133.738 45.4697L131.036 48.4183C131.278 48.6409 131.539 49.0603 131.539 50.016H135.539ZM133.861 45.5925C132.869 44.5097 131.597 43.79 130.138 43.385L129.068 47.239C129.913 47.474 130.497 47.8423 130.913 48.2955L133.861 45.5925ZM130.269 43.426C128.945 42.9588 127.533 42.736 126.051 42.736V46.736C127.129 46.736 128.085 46.8972 128.937 47.198L130.269 43.426ZM126.051 42.736H110.019V46.736H126.051V42.736ZM108.019 44.736V55.68H112.019V44.736H108.019ZM110.019 32.912H122.595V28.912H110.019V32.912ZM122.595 32.912C124.341 32.912 125.926 32.7044 127.293 32.222L125.961 28.45C125.152 28.7356 124.049 28.912 122.595 28.912V32.912ZM127.259 32.2334C128.655 31.7681 129.904 31.0311 130.74 29.8803L127.506 27.5277C127.318 27.7849 126.903 28.1359 125.995 28.4386L127.259 32.2334ZM130.723 29.904C131.593 28.7444 131.987 27.3804 131.987 25.92H127.987C127.987 26.6356 127.805 27.1276 127.523 27.504L130.723 29.904ZM131.987 25.92C131.987 23.6672 130.936 21.8511 129.024 20.6675L126.918 24.0685C127.694 24.5489 127.987 25.1008 127.987 25.92H131.987ZM129.061 20.6911C127.317 19.5574 125.012 19.12 122.403 19.12V23.12C124.658 23.12 126.065 23.5146 126.881 24.0449L129.061 20.6911ZM122.403 19.12H110.019V23.12H122.403V19.12ZM108.019 21.12V30.912H112.019V21.12H108.019ZM190.93 70.368L190.244 72.2469L190.252 72.2498L190.93 70.368ZM178.45 63.072L177.104 64.5519L177.118 64.5647L177.133 64.5772L178.45 63.072ZM170.29 51.936L168.454 52.7304L168.462 52.7471L168.469 52.7636L170.29 51.936ZM170.29 24L168.464 23.1827L168.459 23.1955L170.29 24ZM178.45 12.864L179.78 14.3573L179.782 14.3559L178.45 12.864ZM190.93 5.472L190.252 3.59021L190.244 3.59315L190.93 5.472ZM222.514 5.472L221.828 7.35086L221.836 7.35377L222.514 5.472ZM234.994 12.864L233.648 14.3439L233.656 14.3506L233.663 14.3573L234.994 12.864ZM243.154 24L241.328 24.8173L241.333 24.8276L243.154 24ZM243.154 51.84L241.328 51.0227L241.328 51.0227L243.154 51.84ZM234.994 63.072L236.324 64.5653L236.332 64.5586L236.339 64.5519L234.994 63.072ZM222.514 70.368L221.836 68.4862L221.828 68.4892L222.514 70.368ZM213.97 52.608L213.321 50.7161L213.313 50.719L213.304 50.722L213.97 52.608ZM219.826 49.344L221.118 50.8708L221.134 50.8566L221.151 50.842L219.826 49.344ZM223.57 44.256L221.757 43.4102L221.746 43.4353L221.735 43.4608L223.57 44.256ZM223.57 31.584L221.735 32.3792L221.746 32.4046L221.757 32.4298L223.57 31.584ZM219.826 26.592L218.501 28.09L218.517 28.1046L218.534 28.1188L219.826 26.592ZM213.97 23.232L213.304 25.118L213.313 25.121L213.321 25.1239L213.97 23.232ZM199.474 23.232L198.825 21.3401L198.817 21.343L198.808 21.346L199.474 23.232ZM193.714 26.592L195.039 28.09L195.039 28.09L193.714 26.592ZM189.874 31.68L188.061 30.8342L188.05 30.8593L188.039 30.8848L189.874 31.68ZM189.874 44.256L188.039 45.0512L188.055 45.0887L188.073 45.1255L189.874 44.256ZM193.714 49.248L195.039 47.75L195.039 47.75L193.714 49.248ZM199.474 52.608L198.808 54.494L198.817 54.497L198.825 54.4999L199.474 52.608ZM206.866 70.96C201.24 70.96 196.161 70.1258 191.607 68.4862L190.252 72.2498C195.298 74.0662 200.843 74.96 206.866 74.96V70.96ZM191.615 68.4892C187.097 66.8407 183.154 64.531 179.767 61.5668L177.133 64.5772C180.913 67.8849 185.29 70.4393 190.244 72.2468L191.615 68.4892ZM179.795 61.5921C176.471 58.5702 173.915 55.0786 172.11 51.1084L168.469 52.7636C170.504 57.2414 173.388 61.1738 177.104 64.5519L179.795 61.5921ZM172.125 51.1416C170.386 47.1244 169.506 42.7254 169.506 37.92H165.506C165.506 43.2266 166.481 48.1716 168.454 52.7304L172.125 51.1416ZM169.506 37.92C169.506 33.1142 170.387 28.7515 172.121 24.8045L168.459 23.1955C166.481 27.6965 165.506 32.6138 165.506 37.92H169.506ZM172.115 24.8173C173.919 20.788 176.47 17.3061 179.78 14.3573L177.119 11.3707C173.389 14.6939 170.5 18.636 168.464 23.1827L172.115 24.8173ZM179.782 14.3559C183.168 11.3329 187.105 8.99632 191.615 7.35084L190.244 3.59315C185.282 5.40368 180.9 7.9951 177.118 11.3721L179.782 14.3559ZM191.607 7.35377C196.164 5.7134 201.211 4.88 206.77 4.88V0.879997C200.808 0.879997 195.296 1.77459 190.252 3.59022L191.607 7.35377ZM206.77 4.88C212.329 4.88 217.341 5.71354 221.828 7.35084L223.199 3.59315C218.215 1.77445 212.731 0.879997 206.77 0.879997V4.88ZM221.836 7.35377C226.408 8.99942 230.336 11.3328 233.648 14.3439L236.339 11.3841C232.611 7.99517 228.22 5.40058 223.191 3.59022L221.836 7.35377ZM233.663 14.3573C236.973 17.3061 239.524 20.788 241.328 24.8173L244.979 23.1827C242.943 18.636 240.054 14.6939 236.324 11.3707L233.663 14.3573ZM241.333 24.8276C243.126 28.7724 244.034 33.0955 244.034 37.824H248.034C248.034 32.5685 247.021 27.6756 244.974 23.1724L241.333 24.8276ZM244.034 37.824C244.034 42.6201 243.125 47.0109 241.328 51.0227L244.979 52.6573C247.023 48.0931 248.034 43.1399 248.034 37.824H244.034ZM241.328 51.0227C239.522 55.0559 236.967 58.5751 233.648 61.5921L236.339 64.5519C240.06 61.1689 242.945 57.2001 244.979 52.6573L241.328 51.0227ZM233.663 61.5787C230.349 64.5311 226.416 66.8376 221.836 68.4862L223.191 72.2498C228.212 70.4424 232.598 67.8849 236.324 64.5653L233.663 61.5787ZM221.828 68.4892C217.338 70.1273 212.358 70.96 206.866 70.96V74.96C212.766 74.96 218.217 74.0647 223.199 72.2468L221.828 68.4892ZM206.77 55.76C209.59 55.76 212.218 55.347 214.635 54.494L213.304 50.722C211.369 51.405 209.198 51.76 206.77 51.76V55.76ZM214.618 54.4999C217.073 53.6582 219.248 52.4528 221.118 50.8708L218.534 47.8172C217.076 49.0512 215.346 50.0218 213.321 50.7161L214.618 54.4999ZM221.151 50.842C223.02 49.1881 224.449 47.2564 225.405 45.0512L221.735 43.4608C221.026 45.0956 219.959 46.5559 218.501 47.846L221.151 50.842ZM225.382 45.1018C226.412 42.8944 226.914 40.4903 226.914 37.92H222.914C222.914 39.9577 222.519 41.7776 221.757 43.4102L225.382 45.1018ZM226.914 37.92C226.914 35.3497 226.412 32.9456 225.382 30.7382L221.757 32.4298C222.519 34.0624 222.914 35.8823 222.914 37.92H226.914ZM225.405 30.7888C224.445 28.5745 223.006 26.6635 221.118 25.0652L218.534 28.1188C219.973 29.3365 221.03 30.7535 221.735 32.3792L225.405 30.7888ZM221.151 25.094C219.277 23.4361 217.091 22.1879 214.618 21.3401L213.321 25.1239C215.328 25.8121 217.047 26.8039 218.501 28.09L221.151 25.094ZM214.635 21.346C212.218 20.493 209.59 20.08 206.77 20.08V24.08C209.198 24.08 211.369 24.435 213.304 25.118L214.635 21.346ZM206.77 20.08C203.949 20.08 201.295 20.4932 198.825 21.3401L200.122 25.1239C202.132 24.4348 204.343 24.08 206.77 24.08V20.08ZM198.808 21.346C196.399 22.1963 194.253 23.4448 192.389 25.094L195.039 28.09C196.503 26.7952 198.197 25.8037 200.139 25.118L198.808 21.346ZM192.389 25.094C190.529 26.7387 189.079 28.6537 188.061 30.8342L191.686 32.5258C192.461 30.8663 193.57 29.3893 195.039 28.09L192.389 25.094ZM188.039 30.8848C187.09 33.0731 186.626 35.426 186.626 37.92H190.626C190.626 35.934 190.993 34.1269 191.709 32.4752L188.039 30.8848ZM186.626 37.92C186.626 40.4697 187.087 42.8559 188.039 45.0512L191.709 43.4608C190.996 41.8161 190.626 39.9783 190.626 37.92H186.626ZM188.073 45.1255C189.093 47.2386 190.541 49.112 192.389 50.746L195.039 47.75C193.558 46.44 192.447 44.9854 191.675 43.3865L188.073 45.1255ZM192.389 50.746C194.253 52.3952 196.399 53.6437 198.808 54.494L200.139 50.722C198.197 50.0363 196.503 49.0448 195.039 47.75L192.389 50.746ZM198.825 54.4999C201.295 55.3468 203.949 55.76 206.77 55.76V51.76C204.343 51.76 202.132 51.4052 200.122 50.7161L198.825 54.4999ZM279.338 68.832L278.424 70.6114L278.434 70.6162L279.338 68.832ZM267.914 58.56L266.223 59.6289L266.223 59.6289L267.914 58.56ZM263.786 4.8V2.8H261.786V4.8H263.786ZM284.714 4.8H286.714V2.8H284.714V4.8ZM286.154 49.152L284.391 50.0964L284.403 50.1205L284.417 50.1443L286.154 49.152ZM290.282 53.376L289.262 55.0966L289.275 55.1046L289.289 55.1125L290.282 53.376ZM302.762 53.376L303.754 55.1125L303.754 55.1125L302.762 53.376ZM306.986 49.152L305.276 48.114L305.262 48.1367L305.249 48.1597L306.986 49.152ZM308.618 4.8V2.8H306.618V4.8H308.618ZM329.066 4.8H331.066V2.8H329.066V4.8ZM324.938 58.56L326.628 59.6289L326.628 59.6289L324.938 58.56ZM313.418 68.832L312.514 67.0478L312.504 67.0526L313.418 68.832ZM296.426 70.576C290.222 70.576 284.845 69.3796 280.241 67.0478L278.434 70.6162C283.686 73.2764 289.701 74.576 296.426 74.576V70.576ZM280.251 67.0526C275.684 64.7093 272.153 61.5223 269.604 57.4911L266.223 59.6289C269.178 64.3017 273.263 67.9627 278.424 70.6114L280.251 67.0526ZM269.604 57.4911C267.071 53.485 265.786 48.9016 265.786 43.68H261.786C261.786 49.5944 263.252 54.931 266.223 59.6289L269.604 57.4911ZM265.786 43.68V4.8H261.786V43.68H265.786ZM263.786 6.8H284.714V2.8H263.786V6.8ZM282.714 4.8V43.008H286.714V4.8H282.714ZM282.714 43.008C282.714 45.5971 283.255 47.9771 284.391 50.0964L287.916 48.2076C287.132 46.7429 286.714 45.0269 286.714 43.008H282.714ZM284.417 50.1443C285.608 52.2284 287.227 53.891 289.262 55.0966L291.301 51.6554C289.88 50.813 288.747 49.6596 287.89 48.1597L284.417 50.1443ZM289.289 55.1125C291.417 56.3286 293.815 56.912 296.426 56.912V52.912C294.428 52.912 292.73 52.4714 291.274 51.6395L289.289 55.1125ZM296.426 56.912C299.143 56.912 301.61 56.3377 303.754 55.1125L301.769 51.6395C300.329 52.4623 298.572 52.912 296.426 52.912V56.912ZM303.754 55.1125C305.856 53.9113 307.521 52.2463 308.722 50.1443L305.249 48.1597C304.402 49.6417 303.251 50.7927 301.769 51.6395L303.754 55.1125ZM308.695 50.19C309.992 48.0546 310.618 45.6406 310.618 43.008H306.618C306.618 44.9834 306.155 46.6654 305.276 48.114L308.695 50.19ZM310.618 43.008V4.8H306.618V43.008H310.618ZM308.618 6.8H329.066V2.8H308.618V6.8ZM327.066 4.8V43.68H331.066V4.8H327.066ZM327.066 43.68C327.066 48.9016 325.78 53.485 323.247 57.4911L326.628 59.6289C329.599 54.931 331.066 49.5944 331.066 43.68H327.066ZM323.247 57.4911C320.702 61.5158 317.144 64.7026 312.514 67.0478L314.321 70.6162C319.547 67.9694 323.669 64.3082 326.628 59.6289L323.247 57.4911ZM312.504 67.0526C307.97 69.3794 302.63 70.576 296.426 70.576V74.576C303.149 74.576 309.137 73.2766 314.331 70.6114L312.504 67.0526ZM368.738 72H366.738V74H368.738V72ZM368.738 22.464H370.738V20.464H368.738V22.464ZM345.314 22.464H343.314V24.464H345.314V22.464ZM345.314 4.8V2.8H343.314V4.8H345.314ZM413.474 4.8H415.474V2.8H413.474V4.8ZM413.474 22.464V24.464H415.474V22.464H413.474ZM389.474 22.464V20.464H387.474V22.464H389.474ZM389.474 72V74H391.474V72H389.474ZM370.738 72V22.464H366.738V72H370.738ZM368.738 20.464H345.314V24.464H368.738V20.464ZM347.314 22.464V4.8H343.314V22.464H347.314ZM345.314 6.8H413.474V2.8H345.314V6.8ZM411.474 4.8V22.464H415.474V4.8H411.474ZM413.474 20.464H389.474V24.464H413.474V20.464ZM387.474 22.464V72H391.474V22.464H387.474ZM389.474 70H368.738V74H389.474V70ZM471.257 72H469.257V74H471.257V72ZM471.257 4.8V2.8H469.257V4.8H471.257ZM489.113 4.8L490.76 3.66642L490.164 2.8H489.113V4.8ZM515.993 43.872L515.979 45.872L519.814 45.8982L517.64 42.7384L515.993 43.872ZM501.977 43.776L500.336 42.6323L498.163 45.7499L501.963 45.776L501.977 43.776ZM529.145 4.8V2.8H528.101L527.504 3.65633L529.145 4.8ZM546.617 4.8H548.617V2.8H546.617V4.8ZM546.617 72V74H548.617V72H546.617ZM526.649 72H524.649V74H526.649V72ZM527.033 40.32L525.037 40.1833L525.036 40.1962L525.036 40.2091L527.033 40.32ZM528.569 26.304L530.454 25.6368L526.591 26.006L528.569 26.304ZM530.777 32.544L532.382 33.7362L533.017 32.881L532.662 31.8768L530.777 32.544ZM511.961 57.888V59.888H512.967L513.566 59.0802L511.961 57.888ZM505.625 57.888L504.012 59.0705L504.611 59.888H505.625V57.888ZM486.905 32.352L485.046 31.6143L484.638 32.6424L485.291 33.5345L486.905 32.352ZM489.305 26.304L491.281 25.9978L490.156 18.7362L487.446 25.5663L489.305 26.304ZM490.745 40.032L488.748 40.1429L488.748 40.1577L488.749 40.1725L490.745 40.032ZM491.225 72V74H493.225V72H491.225ZM473.257 72V4.8H469.257V72H473.257ZM471.257 6.8H489.113V2.8H471.257V6.8ZM487.465 5.93357L514.345 45.0056L517.64 42.7384L490.76 3.66642L487.465 5.93357ZM516.006 41.872L501.99 41.776L501.963 45.776L515.979 45.872L516.006 41.872ZM503.617 44.9197L530.785 5.94366L527.504 3.65633L500.336 42.6323L503.617 44.9197ZM529.145 6.8H546.617V2.8H529.145V6.8ZM544.617 4.8V72H548.617V4.8H544.617ZM546.617 70H526.649V74H546.617V70ZM528.649 72V55.584H524.649V72H528.649ZM528.649 55.584C528.649 50.0457 528.776 44.9954 529.029 40.4309L525.036 40.2091C524.777 44.8606 524.649 49.9863 524.649 55.584H528.649ZM529.028 40.4567C529.344 35.8391 529.85 31.221 530.546 26.602L526.591 26.006C525.879 30.731 525.361 35.4569 525.037 40.1833L529.028 40.4567ZM526.683 26.9712L528.891 33.2112L532.662 31.8768L530.454 25.6368L526.683 26.9712ZM529.171 31.3518L510.355 56.6958L513.566 59.0802L532.382 33.7362L529.171 31.3518ZM511.961 55.888H505.625V59.888H511.961V55.888ZM507.238 56.7055L488.518 31.1695L485.291 33.5345L504.012 59.0705L507.238 56.7055ZM488.763 33.0897L491.163 27.0417L487.446 25.5663L485.046 31.6143L488.763 33.0897ZM487.328 26.6102C488.022 31.0893 488.495 35.6001 488.748 40.1429L492.741 39.9211C492.482 35.2479 491.995 30.6067 491.281 25.9978L487.328 26.6102ZM488.749 40.1725C489.065 44.659 489.225 49.7947 489.225 55.584H493.225C493.225 49.7253 493.064 44.493 492.74 39.8915L488.749 40.1725ZM489.225 55.584V72H493.225V55.584H489.225ZM491.225 70H471.257V74H491.225V70ZM568.475 72H566.475V74H568.475V72ZM568.475 4.8V2.8H566.475V4.8H568.475ZM624.059 4.8H626.059V2.8H624.059V4.8ZM624.059 21.6V23.6H626.059V21.6H624.059ZM588.347 21.6V19.6H586.347V21.6H588.347ZM588.347 55.2H586.347V57.2H588.347V55.2ZM625.787 55.2H627.787V53.2H625.787V55.2ZM625.787 72V74H627.787V72H625.787ZM578.747 45.888H576.747V47.888H578.747V45.888ZM578.747 30.144V28.144H576.747V30.144H578.747ZM620.507 30.144H622.507V28.144H620.507V30.144ZM620.507 45.888V47.888H622.507V45.888H620.507ZM570.475 72V4.8H566.475V72H570.475ZM568.475 6.8H624.059V2.8H568.475V6.8ZM622.059 4.8V21.6H626.059V4.8H622.059ZM624.059 19.6H588.347V23.6H624.059V19.6ZM586.347 21.6V55.2H590.347V21.6H586.347ZM588.347 57.2H625.787V53.2H588.347V57.2ZM623.787 55.2V72H627.787V55.2H623.787ZM625.787 70H568.475V74H625.787V70ZM580.747 45.888V30.144H576.747V45.888H580.747ZM578.747 32.144H620.507V28.144H578.747V32.144ZM618.507 30.144V45.888H622.507V30.144H618.507ZM620.507 43.888H578.747V47.888H620.507V43.888Z" fill="black" mask="url(#path-1-outside-1_271_47)"/>
</svg>
