<svg width="623" height="71" viewBox="0 0 623 71" fill="none" xmlns="http://www.w3.org/2000/svg">
<path d="M0.1095 70L29.7735 2.8H46.7655L76.2375 70H55.5015L41.8695 38.32C41.1655 36.528 40.5255 34.96 39.9495 33.616C39.4375 32.208 38.9575 30.896 38.5095 29.68C38.1255 28.4 37.7415 27.12 37.3575 25.84C36.9735 24.496 36.5895 23.024 36.2055 21.424H39.8535C39.5335 23.088 39.1495 24.592 38.7015 25.936C38.3175 27.28 37.9015 28.56 37.4535 29.776C37.0055 30.992 36.4935 32.272 35.9175 33.616C35.3415 34.96 34.7015 36.528 33.9975 38.32L20.3655 70H0.1095ZM14.6055 60.4L20.8455 46.288H55.6935L60.1095 60.4H14.6055ZM87.819 70V2.8H122.187C127.563 2.8 132.075 3.472 135.723 4.816C139.435 6.16 142.251 8.048 144.171 10.48C146.155 12.912 147.147 15.76 147.147 19.024C147.147 22.992 146.155 26.32 144.171 29.008C142.187 31.632 139.243 33.392 135.339 34.288V32.56C138.219 33.264 140.811 34.352 143.115 35.824C145.419 37.296 147.243 39.152 148.587 41.392C149.995 43.632 150.699 46.256 150.699 49.264C150.699 53.04 149.931 56.272 148.395 58.96C146.859 61.584 144.779 63.728 142.155 65.392C139.595 66.992 136.715 68.176 133.515 68.944C130.379 69.648 127.115 70 123.723 70H87.819ZM107.019 53.68H123.531C124.939 53.68 126.155 53.488 127.179 53.104C128.203 52.72 129.003 52.112 129.579 51.28C130.219 50.384 130.539 49.296 130.539 48.016C130.539 46.672 130.155 45.648 129.387 44.944C128.683 44.176 127.755 43.632 126.603 43.312C125.515 42.928 124.331 42.736 123.051 42.736H107.019V53.68ZM107.019 28.912H119.595C121.195 28.912 122.539 28.72 123.627 28.336C124.779 27.952 125.611 27.408 126.123 26.704C126.699 25.936 126.987 25.008 126.987 23.92C126.987 22.384 126.315 21.2 124.971 20.368C123.691 19.536 121.835 19.12 119.403 19.12H107.019V28.912ZM203.866 70.96C198.042 70.96 192.73 70.096 187.93 68.368C183.194 66.64 179.034 64.208 175.45 61.072C171.93 57.872 169.21 54.16 167.29 49.936C165.434 45.648 164.506 40.976 164.506 35.92C164.506 30.864 165.434 26.224 167.29 22C169.21 17.712 171.93 14 175.45 10.864C179.034 7.664 183.194 5.2 187.93 3.472C192.73 1.744 198.01 0.879997 203.77 0.879997C209.53 0.879997 214.778 1.744 219.514 3.472C224.314 5.2 228.474 7.664 231.994 10.864C235.514 14 238.234 17.712 240.154 22C242.074 26.224 243.034 30.832 243.034 35.824C243.034 40.88 242.074 45.552 240.154 49.84C238.234 54.128 235.514 57.872 231.994 61.072C228.474 64.208 224.314 66.64 219.514 68.368C214.778 70.096 209.562 70.96 203.866 70.96ZM203.77 51.76C206.394 51.76 208.794 51.376 210.97 50.608C213.21 49.84 215.162 48.752 216.826 47.344C218.49 45.872 219.738 44.176 220.57 42.256C221.466 40.336 221.914 38.224 221.914 35.92C221.914 33.616 221.466 31.504 220.57 29.584C219.738 27.664 218.49 26 216.826 24.592C215.162 23.12 213.21 22 210.97 21.232C208.794 20.464 206.394 20.08 203.77 20.08C201.146 20.08 198.714 20.464 196.474 21.232C194.298 22 192.378 23.12 190.714 24.592C189.05 26.064 187.77 27.76 186.874 29.68C186.042 31.6 185.626 33.68 185.626 35.92C185.626 38.224 186.042 40.336 186.874 42.256C187.77 44.112 189.05 45.776 190.714 47.248C192.378 48.72 194.298 49.84 196.474 50.608C198.714 51.376 201.146 51.76 203.77 51.76ZM293.426 70.576C286.962 70.576 281.266 69.328 276.338 66.832C271.474 64.336 267.666 60.912 264.914 56.56C262.162 52.208 260.786 47.248 260.786 41.68V2.8H281.714V41.008C281.714 43.312 282.194 45.36 283.154 47.152C284.178 48.944 285.554 50.352 287.282 51.376C289.074 52.4 291.122 52.912 293.426 52.912C295.858 52.912 297.97 52.4 299.762 51.376C301.554 50.352 302.962 48.944 303.986 47.152C305.074 45.36 305.618 43.312 305.618 41.008V2.8H326.066V41.68C326.066 47.248 324.69 52.208 321.938 56.56C319.186 60.912 315.346 64.336 310.418 66.832C305.554 69.328 299.89 70.576 293.426 70.576ZM365.738 70V20.464H342.314V2.8H410.474V20.464H386.474V70H365.738ZM468.257 70V2.8H486.113L512.993 41.872L498.977 41.776L526.145 2.8H543.617V70H523.649V53.584C523.649 48.016 523.777 42.928 524.033 38.32C524.353 33.648 524.865 28.976 525.569 24.304L527.777 30.544L508.961 55.888H502.625L483.905 30.352L486.305 24.304C487.009 28.848 487.489 33.424 487.745 38.032C488.065 42.576 488.225 47.76 488.225 53.584V70H468.257ZM565.475 70V2.8H621.059V19.6H585.347V53.2H622.787V70H565.475ZM575.747 43.888V28.144H617.507V43.888H575.747Z" fill="black"/>
</svg>
