<svg width="24" height="25" viewBox="0 0 24 25" fill="none" xmlns="http://www.w3.org/2000/svg">
<mask id="mask0_384_20" style="mask-type:alpha" maskUnits="userSpaceOnUse" x="0" y="0" width="24" height="25">
<rect y="0.5" width="24" height="24" fill="#D9D9D9"/>
</mask>
<g mask="url(#mask0_384_20)">
<path d="M11.9998 13.9L7.0998 18.8C6.91647 18.9833 6.68314 19.075 6.3998 19.075C6.11647 19.075 5.88314 18.9833 5.6998 18.8C5.51647 18.6167 5.4248 18.3833 5.4248 18.1C5.4248 17.8167 5.51647 17.5833 5.6998 17.4L10.5998 12.5L5.6998 7.6C5.51647 7.41667 5.4248 7.18334 5.4248 6.9C5.4248 6.61667 5.51647 6.38334 5.6998 6.2C5.88314 6.01667 6.11647 5.925 6.3998 5.925C6.68314 5.925 6.91647 6.01667 7.0998 6.2L11.9998 11.1L16.8998 6.2C17.0831 6.01667 17.3165 5.925 17.5998 5.925C17.8831 5.925 18.1165 6.01667 18.2998 6.2C18.4831 6.38334 18.5748 6.61667 18.5748 6.9C18.5748 7.18334 18.4831 7.41667 18.2998 7.6L13.3998 12.5L18.2998 17.4C18.4831 17.5833 18.5748 17.8167 18.5748 18.1C18.5748 18.3833 18.4831 18.6167 18.2998 18.8C18.1165 18.9833 17.8831 19.075 17.5998 19.075C17.3165 19.075 17.0831 18.9833 16.8998 18.8L11.9998 13.9Z" fill="#1929FE"/>
</g>
</svg>
