<svg width="83" height="63" viewBox="0 0 83 63" fill="none" xmlns="http://www.w3.org/2000/svg">
<rect x="0.5" width="82" height="63" rx="31.5" fill="white"/>
<path d="M37.3748 20C37.7588 21.3227 38.1321 22.656 38.4948 24C38.8788 25.3227 39.2521 26.656 39.6148 28C39.9988 29.3227 40.3828 30.656 40.7668 32C41.1508 33.3227 41.5241 34.656 41.8868 36C42.2708 37.3227 42.6441 38.656 43.0068 40C43.3908 41.3227 43.7748 42.656 44.1588 44H29.8868L29.3428 40.864C29.2574 40.864 29.1828 40.864 29.1188 40.864C29.0548 40.864 28.9801 40.864 28.8948 40.864H25.3748C25.3108 40.864 25.2468 40.864 25.1828 40.864C25.1188 40.864 25.0548 40.864 24.9908 40.864L24.4468 44H10.7828C11.1668 42.656 11.5401 41.3227 11.9028 40C12.2868 38.656 12.6601 37.3227 13.0228 36C13.4068 34.656 13.7801 33.3227 14.1428 32C14.5268 30.656 14.9001 29.3227 15.2628 28C15.6468 26.656 16.0201 25.3227 16.3828 24C16.7668 22.656 17.1401 21.3227 17.5028 20H37.3748ZM25.3748 38.592C25.3748 38.6133 25.3748 38.624 25.3748 38.624C25.3748 38.624 25.3854 38.624 25.4068 38.624H28.9268C28.9481 38.624 28.9588 38.624 28.9588 38.624C28.9588 38.6027 28.9588 38.592 28.9588 38.592C28.9588 38.592 28.9161 38.336 28.8308 37.824C28.7454 37.2907 28.6281 36.6293 28.4788 35.84C28.3508 35.0293 28.2121 34.176 28.0628 33.28C27.9134 32.3627 27.7748 31.4987 27.6468 30.688C27.5188 29.8773 27.4014 29.216 27.2948 28.704C27.2094 28.192 27.1667 27.936 27.1667 27.936C27.1667 27.936 27.1561 27.936 27.1348 27.936C27.1348 27.936 27.0921 28.192 27.0068 28.704C26.9214 29.216 26.8041 29.8773 26.6548 30.688C26.5268 31.4987 26.3881 32.3627 26.2388 33.28C26.0894 34.176 25.9508 35.0293 25.8228 35.84C25.6948 36.6293 25.5881 37.2907 25.5028 37.824C25.4174 38.336 25.3748 38.592 25.3748 38.592ZM71.7708 29.408H58.1708C58.1708 29.408 58.1708 29.4187 58.1708 29.44V31.296C58.1708 31.3173 58.1708 31.328 58.1708 31.328H71.2908V38.944H58.1708C58.1708 38.944 58.1708 38.9547 58.1708 38.976C58.1708 39.7013 58.1708 40.3093 58.1708 40.8C58.1708 41.2693 58.1708 41.7387 58.1708 42.208C58.1708 42.6773 58.1708 43.2747 58.1708 44H44.8588C44.8588 42.4853 44.8588 40.9707 44.8588 39.456C44.8588 37.9413 44.8588 36.4373 44.8588 34.944C44.8588 33.4293 44.8588 31.9147 44.8588 30.4C44.8588 28.8853 44.8588 27.3707 44.8588 25.856C44.8588 24.8747 44.8588 23.904 44.8588 22.944C44.8588 21.9627 44.8588 20.9813 44.8588 20H71.7708V29.408Z" fill="#1929FE"/>
</svg>
