<svg width="82" height="63" viewBox="0 0 82 63" fill="none" xmlns="http://www.w3.org/2000/svg">
<rect width="82" height="63" rx="31.5" fill="white" fill-opacity="0.2"/>
<path d="M36.8748 20C37.2588 21.3227 37.6321 22.656 37.9948 24C38.3788 25.3227 38.7521 26.656 39.1148 28C39.4988 29.3227 39.8828 30.656 40.2668 32C40.6508 33.3227 41.0241 34.656 41.3868 36C41.7708 37.3227 42.1441 38.656 42.5068 40C42.8908 41.3227 43.2748 42.656 43.6588 44H29.3868L28.8428 40.864C28.7574 40.864 28.6828 40.864 28.6188 40.864C28.5548 40.864 28.4801 40.864 28.3948 40.864H24.8748C24.8108 40.864 24.7468 40.864 24.6828 40.864C24.6188 40.864 24.5548 40.864 24.4908 40.864L23.9468 44H10.2828C10.6668 42.656 11.0401 41.3227 11.4028 40C11.7868 38.656 12.1601 37.3227 12.5228 36C12.9068 34.656 13.2801 33.3227 13.6428 32C14.0268 30.656 14.4001 29.3227 14.7628 28C15.1468 26.656 15.5201 25.3227 15.8828 24C16.2668 22.656 16.6401 21.3227 17.0028 20H36.8748ZM24.8748 38.592C24.8748 38.6133 24.8748 38.624 24.8748 38.624C24.8748 38.624 24.8854 38.624 24.9068 38.624H28.4268C28.4481 38.624 28.4588 38.624 28.4588 38.624C28.4588 38.6027 28.4588 38.592 28.4588 38.592C28.4588 38.592 28.4161 38.336 28.3308 37.824C28.2454 37.2907 28.1281 36.6293 27.9788 35.84C27.8508 35.0293 27.7121 34.176 27.5628 33.28C27.4134 32.3627 27.2748 31.4987 27.1468 30.688C27.0188 29.8773 26.9014 29.216 26.7948 28.704C26.7094 28.192 26.6667 27.936 26.6667 27.936C26.6667 27.936 26.6561 27.936 26.6348 27.936C26.6348 27.936 26.5921 28.192 26.5068 28.704C26.4214 29.216 26.3041 29.8773 26.1548 30.688C26.0268 31.4987 25.8881 32.3627 25.7388 33.28C25.5894 34.176 25.4508 35.0293 25.3228 35.84C25.1948 36.6293 25.0881 37.2907 25.0028 37.824C24.9174 38.336 24.8748 38.592 24.8748 38.592ZM71.2708 29.408H57.6708C57.6708 29.408 57.6708 29.4187 57.6708 29.44V31.296C57.6708 31.3173 57.6708 31.328 57.6708 31.328H70.7908V38.944H57.6708C57.6708 38.944 57.6708 38.9547 57.6708 38.976C57.6708 39.7013 57.6708 40.3093 57.6708 40.8C57.6708 41.2693 57.6708 41.7387 57.6708 42.208C57.6708 42.6773 57.6708 43.2747 57.6708 44H44.3588C44.3588 42.4853 44.3588 40.9707 44.3588 39.456C44.3588 37.9413 44.3588 36.4373 44.3588 34.944C44.3588 33.4293 44.3588 31.9147 44.3588 30.4C44.3588 28.8853 44.3588 27.3707 44.3588 25.856C44.3588 24.8747 44.3588 23.904 44.3588 22.944C44.3588 21.9627 44.3588 20.9813 44.3588 20H71.2708V29.408Z" fill="white"/>
</svg>
