<svg width="695" height="459" viewBox="0 0 695 459" fill="none" xmlns="http://www.w3.org/2000/svg">
<path d="M202.618 68V0.799995H218.938V68H202.618ZM209.722 42.656V29.024H249.562V42.656H209.722ZM210.202 15.2V0.799995H253.498V15.2H210.202ZM272.846 68V17.024H287.438L288.11 34.592L284.462 32.768C285.294 29.632 286.734 26.816 288.782 24.32C290.894 21.76 293.294 19.744 295.982 18.272C298.734 16.736 301.646 15.968 304.718 15.968C306.382 15.968 307.95 16.128 309.422 16.448C310.958 16.768 312.27 17.184 313.358 17.696L309.134 34.496C308.174 33.792 306.862 33.248 305.198 32.864C303.598 32.48 301.966 32.288 300.302 32.288C298.446 32.288 296.75 32.608 295.214 33.248C293.742 33.824 292.494 34.656 291.47 35.744C290.446 36.768 289.646 37.952 289.07 39.296C288.558 40.64 288.302 42.08 288.302 43.616V68H272.846ZM353.976 68.96C348.024 68.96 342.744 67.808 338.136 65.504C333.528 63.2 329.912 60.064 327.288 56.096C324.664 52.128 323.352 47.584 323.352 42.464C323.352 37.344 324.664 32.8 327.288 28.832C329.912 24.864 333.528 21.728 338.136 19.424C342.744 17.12 348.024 15.968 353.976 15.968C359.864 15.968 365.08 17.12 369.624 19.424C374.232 21.728 377.848 24.864 380.472 28.832C383.096 32.8 384.408 37.344 384.408 42.464C384.408 47.584 383.096 52.128 380.472 56.096C377.848 60.064 374.232 63.2 369.624 65.504C365.08 67.808 359.864 68.96 353.976 68.96ZM353.976 55.712C356.728 55.712 359.224 55.136 361.464 53.984C363.768 52.832 365.56 51.264 366.84 49.28C368.184 47.296 368.824 45.024 368.76 42.464C368.824 39.904 368.184 37.6 366.84 35.552C365.56 33.504 363.768 31.936 361.464 30.848C359.224 29.696 356.728 29.12 353.976 29.12C351.16 29.12 348.568 29.696 346.2 30.848C343.896 32 342.104 33.568 340.824 35.552C339.544 37.536 338.904 39.84 338.904 42.464C338.904 45.024 339.544 47.296 340.824 49.28C342.104 51.264 343.896 52.832 346.2 53.984C348.568 55.136 351.16 55.712 353.976 55.712ZM403.056 68V17.024H417.648L418.128 27.776L415.344 27.104C416.176 25.568 417.264 24.128 418.608 22.784C420.016 21.44 421.584 20.288 423.312 19.328C425.104 18.304 427.024 17.504 429.072 16.928C431.12 16.352 433.328 16.064 435.696 16.064C438.448 16.064 440.976 16.48 443.28 17.312C445.648 18.144 447.664 19.52 449.328 21.44C450.992 23.296 452.272 25.792 453.168 28.928L450 28.544L450.768 27.008C451.792 25.536 453.008 24.16 454.416 22.88C455.888 21.536 457.552 20.384 459.408 19.424C461.264 18.4 463.248 17.6 465.36 17.024C467.472 16.384 469.648 16.064 471.888 16.064C476.56 16.064 480.368 16.96 483.312 18.752C486.256 20.48 488.432 22.944 489.84 26.144C491.248 29.344 491.952 33.056 491.952 37.28V68H476.496V38.912C476.496 36.864 476.176 35.104 475.536 33.632C474.896 32.16 473.904 31.04 472.56 30.272C471.28 29.44 469.616 29.024 467.568 29.024C465.776 29.024 464.112 29.312 462.576 29.888C461.104 30.464 459.792 31.264 458.64 32.288C457.552 33.248 456.688 34.4 456.048 35.744C455.472 37.024 455.184 38.432 455.184 39.968V68H439.728V38.816C439.728 36.832 439.376 35.104 438.672 33.632C437.968 32.16 436.88 31.04 435.408 30.272C433.936 29.44 432.112 29.024 429.936 29.024C428.208 29.024 426.64 29.344 425.232 29.984C423.888 30.56 422.704 31.36 421.68 32.384C420.656 33.344 419.856 34.4 419.28 35.552C418.768 36.704 418.512 37.888 418.512 39.104V68H403.056ZM32.1856 164.704L29.7856 164.512V187.744C29.7856 189.664 29.9136 191.072 30.1696 191.968C30.4256 192.8 31.0336 193.344 31.9936 193.6C33.0176 193.792 34.6816 193.984 36.9856 194.176C37.0496 194.816 37.0496 195.456 36.9856 196.096C36.0896 196.096 34.9056 196.064 33.4336 196C32.0256 196 30.6176 196 29.2096 196C27.8656 195.936 26.7456 195.904 25.8496 195.904C25.0176 195.904 23.8976 195.936 22.4896 196C21.1456 196 19.8016 196 18.4576 196C17.1136 196.064 15.9936 196.096 15.0976 196.096C15.0336 195.456 15.0336 194.816 15.0976 194.176C17.3376 193.984 18.9376 193.792 19.8976 193.6C20.9216 193.408 21.5296 192.96 21.7216 192.256C21.9776 191.488 22.1056 190.272 22.1056 188.608V136.96C22.1056 135.04 21.9776 133.664 21.7216 132.832C21.4656 132 20.8256 131.456 19.8016 131.2C18.8416 130.944 17.2736 130.752 15.0976 130.624C15.0336 129.984 15.0336 129.344 15.0976 128.704C15.9936 128.704 17.1136 128.736 18.4576 128.8C19.8656 128.8 21.2416 128.832 22.5856 128.896C23.9936 128.896 25.1136 128.896 25.9456 128.896C26.7776 128.896 28.0256 128.896 29.6896 128.896C31.3536 128.832 33.0176 128.8 34.6816 128.8C36.3456 128.736 37.5616 128.704 38.3296 128.704C41.9776 128.704 45.3696 129.248 48.5056 130.336C51.6416 131.424 54.1696 133.184 56.0896 135.616C58.0736 137.984 59.0656 141.184 59.0656 145.216C59.0656 149.952 57.6576 153.792 54.8416 156.736C52.0256 159.68 48.2496 161.888 43.5136 163.36V163.648C44.4096 164.096 45.2416 164.672 46.0096 165.376C46.8416 166.016 47.7696 166.976 48.7936 168.256C49.5616 169.216 50.6496 170.752 52.0576 172.864C53.5296 174.976 55.0656 177.28 56.6656 179.776C58.3296 182.208 59.8336 184.48 61.1776 186.592C62.6496 188.896 63.8976 190.56 64.9216 191.584C65.9456 192.544 67.0656 193.184 68.2816 193.504C69.4976 193.76 71.1296 193.984 73.1776 194.176C73.2416 194.816 73.2416 195.456 73.1776 196.096C72.2816 196.096 71.1296 196.064 69.7216 196C68.3136 196 66.9376 196 65.5936 196C64.3136 195.936 63.3216 195.904 62.6176 195.904C61.8496 195.904 61.1136 195.936 60.4096 196C59.7056 196 59.0016 196 58.2976 196C57.5936 194.784 56.5696 193.12 55.2256 191.008C53.8816 188.832 52.3776 186.464 50.7136 183.904C49.0496 181.344 47.3856 178.848 45.7216 176.416C44.1216 173.92 42.6816 171.808 41.4016 170.08C40.3136 168.544 39.3536 167.424 38.5216 166.72C37.6896 166.016 36.7936 165.536 35.8336 165.28C34.9376 165.024 33.7216 164.832 32.1856 164.704ZM29.7856 161.632C30.6176 161.76 31.3536 161.856 31.9936 161.92C32.6336 161.92 33.2416 161.92 33.8176 161.92C38.9376 161.92 43.0336 160.672 46.1056 158.176C49.2416 155.616 50.8096 151.648 50.8096 146.272C50.8096 141.472 49.4976 137.824 46.8736 135.328C44.2496 132.768 40.3776 131.488 35.2576 131.488C33.6576 131.488 31.8336 131.584 29.7856 131.776V161.632ZM80.3521 196.096C80.2881 195.456 80.2881 194.816 80.3521 194.176C82.5281 193.984 84.0961 193.792 85.0561 193.6C86.0161 193.344 86.5921 192.864 86.7841 192.16C87.0401 191.456 87.1681 190.272 87.1681 188.608V137.056C87.1681 135.136 87.0401 133.76 86.7841 132.928C86.5281 132.096 85.9201 131.552 84.9601 131.296C84.0641 130.976 82.5281 130.752 80.3521 130.624C80.2881 129.984 80.2881 129.344 80.3521 128.704C81.9521 128.704 83.2961 128.736 84.3841 128.8C85.5361 128.8 86.8481 128.832 88.3201 128.896C89.8561 128.896 91.9361 128.896 94.5601 128.896C97.3121 128.896 100.096 128.896 102.912 128.896C105.728 128.832 108.352 128.8 110.784 128.8C113.216 128.8 115.232 128.8 116.832 128.8C118.432 128.736 119.36 128.704 119.616 128.704C120 132.352 120.544 136.224 121.248 140.32C120.544 140.384 119.904 140.384 119.328 140.32C118.816 138.592 118.272 137.216 117.696 136.192C117.12 135.104 116.512 134.272 115.872 133.696C115.04 132.928 113.984 132.416 112.704 132.16C111.488 131.904 109.952 131.776 108.096 131.776H94.8481V159.808H104.928C107.168 159.808 108.832 159.68 109.92 159.424C111.008 159.168 111.776 158.528 112.224 157.504C112.672 156.416 113.056 154.688 113.376 152.32C114.08 152.256 114.752 152.256 115.392 152.32C115.392 152.768 115.36 153.888 115.296 155.68C115.232 157.408 115.2 159.36 115.2 161.536C115.2 163.52 115.232 165.408 115.296 167.2C115.36 168.928 115.392 170.08 115.392 170.656C114.816 170.72 114.144 170.72 113.376 170.656C113.12 168.096 112.768 166.304 112.32 165.28C111.872 164.192 111.136 163.52 110.112 163.264C109.088 163.008 107.552 162.88 105.504 162.88H94.8481V193.024H107.616C109.92 193.024 111.872 192.896 113.472 192.64C115.136 192.32 116.416 191.712 117.312 190.816C117.952 190.176 118.624 189.152 119.328 187.744C120.096 186.336 120.864 184.672 121.632 182.752C122.208 182.688 122.816 182.688 123.456 182.752C122.944 185.312 122.496 187.776 122.112 190.144C121.792 192.512 121.536 194.464 121.344 196C119.232 196 116.8 196 114.048 196C111.296 196 108.512 196 105.696 196C102.88 195.936 100.32 195.904 98.0161 195.904C95.7121 195.904 93.9521 195.904 92.7361 195.904C90.5601 195.904 88.7681 195.936 87.3601 196C86.0161 196 84.8321 196 83.8081 196C82.7841 196.064 81.6321 196.096 80.3521 196.096ZM193.766 196.48L148.166 137.44V186.016C148.166 187.808 148.198 189.184 148.262 190.144C148.39 191.04 148.678 191.744 149.126 192.256C149.638 192.704 150.374 193.12 151.334 193.504C152.294 193.824 153.67 194.048 155.462 194.176C155.526 194.816 155.526 195.456 155.462 196.096C154.054 196.096 152.486 196.064 150.758 196C149.094 195.936 147.686 195.904 146.534 195.904C145.382 195.904 143.942 195.936 142.214 196C140.55 196.064 139.046 196.096 137.702 196.096C137.638 195.456 137.638 194.816 137.702 194.176C139.942 193.92 141.542 193.632 142.502 193.312C143.462 192.992 144.038 192.384 144.23 191.488C144.486 190.528 144.614 188.992 144.614 186.88V139.168C144.614 136.672 144.486 134.88 144.23 133.792C143.974 132.64 143.302 131.872 142.214 131.488C141.19 131.104 139.494 130.784 137.126 130.528C137.062 129.952 137.062 129.344 137.126 128.704C138.598 128.704 140.134 128.736 141.734 128.8C143.398 128.864 145.03 128.896 146.63 128.896C146.822 128.896 147.43 128.896 148.454 128.896C149.542 128.896 150.502 128.864 151.334 128.8L194.15 184.384V138.88C194.15 137.152 194.118 135.808 194.054 134.848C193.99 133.824 193.702 133.088 193.19 132.64C192.23 131.552 189.862 130.88 186.086 130.624C186.022 129.984 186.022 129.376 186.086 128.8C187.43 128.8 189.094 128.832 191.078 128.896C193.062 128.896 194.63 128.896 195.782 128.896C196.934 128.896 198.342 128.896 200.006 128.896C201.734 128.832 203.302 128.8 204.71 128.8C204.774 129.376 204.774 129.984 204.71 130.624C202.47 130.88 200.838 131.2 199.814 131.584C198.854 131.904 198.246 132.544 197.99 133.504C197.798 134.4 197.702 135.904 197.702 138.016V196.096C197.254 196.224 196.614 196.32 195.782 196.384C195.014 196.448 194.342 196.48 193.766 196.48ZM209.116 196.096C209.052 195.456 209.052 194.816 209.116 194.176C211.228 193.984 212.796 193.76 213.82 193.504C214.908 193.184 215.772 192.512 216.412 191.488C217.052 190.4 217.788 188.672 218.62 186.304L239.932 128.896C240.444 128.704 241.052 128.576 241.756 128.512C242.524 128.384 243.132 128.32 243.58 128.32L265.084 186.88C265.916 189.12 266.588 190.72 267.1 191.68C267.676 192.64 268.476 193.248 269.5 193.504C270.524 193.76 272.124 193.984 274.3 194.176C274.364 194.816 274.364 195.456 274.3 196.096C272.636 196.096 270.748 196.064 268.636 196C266.588 195.936 264.7 195.904 262.972 195.904C261.18 195.904 259.484 195.936 257.884 196C256.348 196.064 254.684 196.096 252.892 196.096C252.828 195.456 252.828 194.816 252.892 194.176C255.132 193.984 256.604 193.792 257.308 193.6C258.076 193.344 258.46 192.768 258.46 191.872C258.46 191.552 258.396 191.168 258.268 190.72C258.14 190.208 257.948 189.6 257.692 188.896L251.068 170.368H228.22L221.98 187.84C221.34 189.568 221.02 190.816 221.02 191.584C221.02 192.608 221.5 193.248 222.46 193.504C223.42 193.76 224.988 193.984 227.164 194.176C227.228 194.816 227.228 195.456 227.164 196.096C225.564 196.096 223.996 196.064 222.46 196C220.988 195.936 219.452 195.904 217.852 195.904C216.572 195.904 215.132 195.936 213.532 196C211.996 196.064 210.524 196.096 209.116 196.096ZM229.276 167.392H249.916L239.548 138.496L229.276 167.392ZM297.348 136.192V187.744C297.348 189.664 297.444 191.072 297.636 191.968C297.828 192.8 298.404 193.344 299.364 193.6C300.324 193.792 301.956 193.984 304.26 194.176C304.324 194.816 304.324 195.456 304.26 196.096C302.852 196.096 301.028 196.064 298.788 196C296.548 195.936 294.788 195.904 293.508 195.904C292.1 195.904 290.308 195.936 288.132 196C285.956 196.064 284.132 196.096 282.66 196.096C282.596 195.456 282.596 194.816 282.66 194.176C284.9 193.984 286.5 193.792 287.46 193.6C288.484 193.408 289.092 192.96 289.284 192.256C289.54 191.488 289.668 190.272 289.668 188.608V137.056C289.668 135.136 289.54 133.76 289.284 132.928C289.028 132.096 288.42 131.552 287.46 131.296C286.5 130.976 284.9 130.752 282.66 130.624C282.596 129.984 282.596 129.344 282.66 128.704C283.62 128.704 284.772 128.736 286.116 128.8C287.524 128.8 288.9 128.832 290.244 128.896C291.588 128.896 292.708 128.896 293.604 128.896C294.5 128.896 295.588 128.896 296.868 128.896C298.212 128.832 299.556 128.8 300.9 128.8C302.244 128.736 303.364 128.704 304.26 128.704C304.324 129.344 304.324 129.984 304.26 130.624C302.02 130.816 300.42 131.008 299.46 131.2C298.5 131.392 297.892 131.84 297.636 132.544C297.444 133.248 297.348 134.464 297.348 136.192ZM321.363 195.712C321.299 193.664 321.235 191.424 321.171 188.992C321.171 186.496 321.075 183.904 320.883 181.216C321.203 181.152 321.491 181.12 321.747 181.12C322.067 181.12 322.387 181.12 322.707 181.12C323.411 185.472 325.203 188.8 328.083 191.104C331.027 193.344 334.387 194.464 338.163 194.464C342.131 194.464 345.171 193.312 347.283 191.008C349.395 188.704 350.451 185.728 350.451 182.08C350.451 179.2 349.843 176.768 348.627 174.784C347.411 172.736 345.715 170.912 343.539 169.312C341.427 167.648 339.027 165.984 336.339 164.32C333.843 162.72 331.411 161.056 329.043 159.328C326.739 157.536 324.851 155.488 323.379 153.184C321.907 150.88 321.171 148.096 321.171 144.832C321.171 141.44 322.003 138.464 323.667 135.904C325.395 133.344 327.731 131.36 330.675 129.952C333.683 128.48 337.075 127.744 340.851 127.744C342.003 127.744 343.027 127.808 343.923 127.936C344.883 128.064 345.971 128.192 347.187 128.32C348.403 128.448 349.395 128.544 350.163 128.608C350.931 128.672 351.635 128.704 352.275 128.704C352.403 128.704 352.627 128.704 352.947 128.704C353.267 128.704 353.651 128.672 354.099 128.608L354.867 142.24C354.483 142.304 354.131 142.368 353.811 142.432C353.555 142.432 353.267 142.432 352.947 142.432C352.627 140.384 352.051 138.56 351.219 136.96C350.451 135.36 349.555 134.112 348.531 133.216C347.443 132.256 346.099 131.552 344.499 131.104C342.899 130.656 341.331 130.432 339.795 130.432C336.467 130.432 333.683 131.424 331.443 133.408C329.267 135.328 328.179 138.08 328.179 141.664C328.179 144.288 328.787 146.56 330.003 148.48C331.219 150.336 332.851 152.064 334.899 153.664C336.947 155.2 339.251 156.8 341.811 158.464C344.307 160.064 346.739 161.824 349.107 163.744C351.475 165.6 353.395 167.776 354.867 170.272C356.403 172.704 357.171 175.68 357.171 179.2C357.171 182.336 356.467 185.28 355.059 188.032C353.651 190.72 351.507 192.928 348.627 194.656C345.747 196.32 342.099 197.152 337.683 197.152C336.723 197.152 335.635 197.088 334.419 196.96C333.267 196.832 331.539 196.64 329.235 196.384C327.315 196.128 325.779 195.968 324.627 195.904C323.539 195.776 322.451 195.712 321.363 195.712ZM371.144 195.712C371.08 193.664 371.016 191.424 370.952 188.992C370.952 186.496 370.856 183.904 370.664 181.216C370.984 181.152 371.272 181.12 371.528 181.12C371.848 181.12 372.168 181.12 372.488 181.12C373.192 185.472 374.984 188.8 377.864 191.104C380.808 193.344 384.168 194.464 387.944 194.464C391.912 194.464 394.952 193.312 397.064 191.008C399.176 188.704 400.232 185.728 400.232 182.08C400.232 179.2 399.624 176.768 398.408 174.784C397.192 172.736 395.496 170.912 393.32 169.312C391.208 167.648 388.808 165.984 386.12 164.32C383.624 162.72 381.192 161.056 378.824 159.328C376.52 157.536 374.632 155.488 373.16 153.184C371.688 150.88 370.952 148.096 370.952 144.832C370.952 141.44 371.784 138.464 373.448 135.904C375.176 133.344 377.512 131.36 380.456 129.952C383.464 128.48 386.856 127.744 390.632 127.744C391.784 127.744 392.808 127.808 393.704 127.936C394.664 128.064 395.752 128.192 396.968 128.32C398.184 128.448 399.176 128.544 399.944 128.608C400.712 128.672 401.416 128.704 402.056 128.704C402.184 128.704 402.408 128.704 402.728 128.704C403.048 128.704 403.432 128.672 403.88 128.608L404.648 142.24C404.264 142.304 403.912 142.368 403.592 142.432C403.336 142.432 403.048 142.432 402.728 142.432C402.408 140.384 401.832 138.56 401 136.96C400.232 135.36 399.336 134.112 398.312 133.216C397.224 132.256 395.88 131.552 394.28 131.104C392.68 130.656 391.112 130.432 389.576 130.432C386.248 130.432 383.464 131.424 381.224 133.408C379.048 135.328 377.96 138.08 377.96 141.664C377.96 144.288 378.568 146.56 379.784 148.48C381 150.336 382.632 152.064 384.68 153.664C386.728 155.2 389.032 156.8 391.592 158.464C394.088 160.064 396.52 161.824 398.888 163.744C401.256 165.6 403.176 167.776 404.648 170.272C406.184 172.704 406.952 175.68 406.952 179.2C406.952 182.336 406.248 185.28 404.84 188.032C403.432 190.72 401.288 192.928 398.408 194.656C395.528 196.32 391.88 197.152 387.464 197.152C386.504 197.152 385.416 197.088 384.2 196.96C383.048 196.832 381.32 196.64 379.016 196.384C377.096 196.128 375.56 195.968 374.408 195.904C373.32 195.776 372.232 195.712 371.144 195.712ZM411.71 196.096C411.646 195.456 411.646 194.816 411.71 194.176C413.822 193.984 415.39 193.76 416.414 193.504C417.502 193.184 418.366 192.512 419.006 191.488C419.646 190.4 420.382 188.672 421.214 186.304L442.526 128.896C443.038 128.704 443.646 128.576 444.35 128.512C445.118 128.384 445.726 128.32 446.174 128.32L467.678 186.88C468.51 189.12 469.182 190.72 469.694 191.68C470.27 192.64 471.07 193.248 472.094 193.504C473.118 193.76 474.718 193.984 476.894 194.176C476.958 194.816 476.958 195.456 476.894 196.096C475.23 196.096 473.342 196.064 471.23 196C469.182 195.936 467.294 195.904 465.566 195.904C463.774 195.904 462.078 195.936 460.478 196C458.942 196.064 457.278 196.096 455.486 196.096C455.422 195.456 455.422 194.816 455.486 194.176C457.726 193.984 459.198 193.792 459.902 193.6C460.67 193.344 461.054 192.768 461.054 191.872C461.054 191.552 460.99 191.168 460.862 190.72C460.734 190.208 460.542 189.6 460.286 188.896L453.662 170.368H430.814L424.574 187.84C423.934 189.568 423.614 190.816 423.614 191.584C423.614 192.608 424.094 193.248 425.054 193.504C426.014 193.76 427.582 193.984 429.758 194.176C429.822 194.816 429.822 195.456 429.758 196.096C428.158 196.096 426.59 196.064 425.054 196C423.582 195.936 422.046 195.904 420.446 195.904C419.166 195.904 417.726 195.936 416.126 196C414.59 196.064 413.118 196.096 411.71 196.096ZM431.87 167.392H452.51L442.142 138.496L431.87 167.392ZM540.454 196.48L494.854 137.44V186.016C494.854 187.808 494.886 189.184 494.95 190.144C495.078 191.04 495.366 191.744 495.814 192.256C496.326 192.704 497.062 193.12 498.022 193.504C498.982 193.824 500.358 194.048 502.15 194.176C502.214 194.816 502.214 195.456 502.15 196.096C500.742 196.096 499.174 196.064 497.446 196C495.782 195.936 494.374 195.904 493.222 195.904C492.07 195.904 490.63 195.936 488.902 196C487.238 196.064 485.734 196.096 484.39 196.096C484.326 195.456 484.326 194.816 484.39 194.176C486.63 193.92 488.23 193.632 489.19 193.312C490.15 192.992 490.726 192.384 490.918 191.488C491.174 190.528 491.302 188.992 491.302 186.88V139.168C491.302 136.672 491.174 134.88 490.918 133.792C490.662 132.64 489.99 131.872 488.902 131.488C487.878 131.104 486.182 130.784 483.814 130.528C483.75 129.952 483.75 129.344 483.814 128.704C485.286 128.704 486.822 128.736 488.422 128.8C490.086 128.864 491.718 128.896 493.318 128.896C493.51 128.896 494.118 128.896 495.142 128.896C496.23 128.896 497.19 128.864 498.022 128.8L540.838 184.384V138.88C540.838 137.152 540.806 135.808 540.742 134.848C540.678 133.824 540.39 133.088 539.878 132.64C538.918 131.552 536.55 130.88 532.774 130.624C532.71 129.984 532.71 129.376 532.774 128.8C534.118 128.8 535.782 128.832 537.766 128.896C539.75 128.896 541.318 128.896 542.47 128.896C543.622 128.896 545.03 128.896 546.694 128.896C548.422 128.832 549.99 128.8 551.398 128.8C551.462 129.376 551.462 129.984 551.398 130.624C549.158 130.88 547.526 131.2 546.502 131.584C545.542 131.904 544.934 132.544 544.678 133.504C544.486 134.4 544.39 135.904 544.39 138.016V196.096C543.942 196.224 543.302 196.32 542.47 196.384C541.702 196.448 541.03 196.48 540.454 196.48ZM623.077 179.68C622.821 181.728 622.533 184.128 622.213 186.88C621.957 189.568 621.765 192 621.637 194.176C618.757 194.752 615.397 195.392 611.557 196.096C607.781 196.8 603.813 197.152 599.653 197.152C592.037 197.152 585.477 195.744 579.973 192.928C574.533 190.048 570.341 186.048 567.397 180.928C564.517 175.808 563.077 169.824 563.077 162.976C563.077 156.064 564.549 149.984 567.493 144.736C570.437 139.424 574.629 135.264 580.069 132.256C585.573 129.248 592.165 127.744 599.845 127.744C601.893 127.744 604.037 127.872 606.277 128.128C608.517 128.32 611.045 128.672 613.861 129.184C614.949 129.376 616.005 129.568 617.029 129.76C618.053 129.952 619.141 130.048 620.293 130.048C620.485 130.048 620.677 130.048 620.869 130.048C621.125 130.048 621.445 130.016 621.829 129.952C621.893 132 621.989 134.496 622.117 137.44C622.309 140.384 622.469 143.04 622.597 145.408C622.213 145.472 621.893 145.536 621.637 145.6C621.381 145.6 621.093 145.6 620.773 145.6C620.069 140.672 617.925 136.928 614.341 134.368C610.757 131.808 605.829 130.528 599.557 130.528C594.181 130.528 589.701 131.424 586.117 133.216C582.533 134.944 579.685 137.312 577.573 140.32C575.461 143.264 573.957 146.656 573.061 150.496C572.165 154.272 571.717 158.176 571.717 162.208C571.717 166.56 572.197 170.688 573.157 174.592C574.181 178.432 575.845 181.824 578.149 184.768C580.453 187.712 583.493 190.048 587.269 191.776C591.045 193.44 595.717 194.272 601.285 194.272C607.621 194.272 612.261 193.056 615.205 190.624C618.149 188.192 620.101 184.544 621.061 179.68C621.189 179.68 621.317 179.68 621.445 179.68C621.637 179.616 621.829 179.584 622.021 179.584C622.149 179.584 622.309 179.616 622.501 179.68C622.693 179.68 622.885 179.68 623.077 179.68ZM638.352 196.096C638.288 195.456 638.288 194.816 638.352 194.176C640.528 193.984 642.096 193.792 643.056 193.6C644.016 193.344 644.592 192.864 644.784 192.16C645.04 191.456 645.168 190.272 645.168 188.608V137.056C645.168 135.136 645.04 133.76 644.784 132.928C644.528 132.096 643.92 131.552 642.96 131.296C642.064 130.976 640.528 130.752 638.352 130.624C638.288 129.984 638.288 129.344 638.352 128.704C639.952 128.704 641.296 128.736 642.384 128.8C643.536 128.8 644.848 128.832 646.32 128.896C647.856 128.896 649.936 128.896 652.56 128.896C655.312 128.896 658.096 128.896 660.912 128.896C663.728 128.832 666.352 128.8 668.784 128.8C671.216 128.8 673.232 128.8 674.832 128.8C676.432 128.736 677.36 128.704 677.616 128.704C678 132.352 678.544 136.224 679.248 140.32C678.544 140.384 677.904 140.384 677.328 140.32C676.816 138.592 676.272 137.216 675.696 136.192C675.12 135.104 674.512 134.272 673.872 133.696C673.04 132.928 671.984 132.416 670.704 132.16C669.488 131.904 667.952 131.776 666.096 131.776H652.848V159.808H662.928C665.168 159.808 666.832 159.68 667.92 159.424C669.008 159.168 669.776 158.528 670.224 157.504C670.672 156.416 671.056 154.688 671.376 152.32C672.08 152.256 672.752 152.256 673.392 152.32C673.392 152.768 673.36 153.888 673.296 155.68C673.232 157.408 673.2 159.36 673.2 161.536C673.2 163.52 673.232 165.408 673.296 167.2C673.36 168.928 673.392 170.08 673.392 170.656C672.816 170.72 672.144 170.72 671.376 170.656C671.12 168.096 670.768 166.304 670.32 165.28C669.872 164.192 669.136 163.52 668.112 163.264C667.088 163.008 665.552 162.88 663.504 162.88H652.848V193.024H665.616C667.92 193.024 669.872 192.896 671.472 192.64C673.136 192.32 674.416 191.712 675.312 190.816C675.952 190.176 676.624 189.152 677.328 187.744C678.096 186.336 678.864 184.672 679.632 182.752C680.208 182.688 680.816 182.688 681.456 182.752C680.944 185.312 680.496 187.776 680.112 190.144C679.792 192.512 679.536 194.464 679.344 196C677.232 196 674.8 196 672.048 196C669.296 196 666.512 196 663.696 196C660.88 195.936 658.32 195.904 656.016 195.904C653.712 195.904 651.952 195.904 650.736 195.904C648.56 195.904 646.768 195.936 645.36 196C644.016 196 642.832 196 641.808 196C640.784 196.064 639.632 196.096 638.352 196.096ZM300.713 316V251.008H316.073V316H300.713ZM289.385 278.464V265.024H329.033V278.464H289.385ZM373.007 316.96C367.055 316.96 361.775 315.808 357.167 313.504C352.559 311.2 348.943 308.064 346.319 304.096C343.695 300.128 342.383 295.584 342.383 290.464C342.383 285.344 343.695 280.8 346.319 276.832C348.943 272.864 352.559 269.728 357.167 267.424C361.775 265.12 367.055 263.968 373.007 263.968C378.895 263.968 384.111 265.12 388.655 267.424C393.263 269.728 396.879 272.864 399.503 276.832C402.127 280.8 403.439 285.344 403.439 290.464C403.439 295.584 402.127 300.128 399.503 304.096C396.879 308.064 393.263 311.2 388.655 313.504C384.111 315.808 378.895 316.96 373.007 316.96ZM373.007 303.712C375.759 303.712 378.255 303.136 380.495 301.984C382.799 300.832 384.591 299.264 385.871 297.28C387.215 295.296 387.855 293.024 387.791 290.464C387.855 287.904 387.215 285.6 385.871 283.552C384.591 281.504 382.799 279.936 380.495 278.848C378.255 277.696 375.759 277.12 373.007 277.12C370.191 277.12 367.599 277.696 365.231 278.848C362.927 280 361.135 281.568 359.855 283.552C358.575 285.536 357.935 287.84 357.935 290.464C357.935 293.024 358.575 295.296 359.855 297.28C361.135 299.264 362.927 300.832 365.231 301.984C367.599 303.136 370.191 303.712 373.007 303.712ZM0.352626 436V368.8H34.0486C38.7846 368.8 42.9446 369.728 46.5286 371.584C50.1126 373.376 52.8966 375.872 54.8806 379.072C56.8646 382.272 57.8566 385.984 57.8566 390.208C57.8566 394.496 56.8006 398.336 54.6886 401.728C52.6406 405.056 49.7926 407.712 46.1446 409.696C42.5606 411.616 38.5286 412.576 34.0486 412.576H15.9046V436H0.352626ZM42.4006 436L23.0086 405.664L39.9046 403.264L61.2166 436H42.4006ZM15.9046 400.096H32.4166C34.2086 400.096 35.7766 399.712 37.1206 398.944C38.5286 398.176 39.6166 397.12 40.3846 395.776C41.2166 394.432 41.6326 392.864 41.6326 391.072C41.6326 389.344 41.1846 387.84 40.2886 386.56C39.4566 385.216 38.2726 384.192 36.7366 383.488C35.2646 382.784 33.5046 382.432 31.4566 382.432H15.9046V400.096ZM103.514 436.96C97.3056 436.96 91.8656 435.84 87.1936 433.6C82.5856 431.296 79.0016 428.192 76.4416 424.288C73.8816 420.32 72.6016 415.808 72.6016 410.752C72.6016 406.72 73.3376 403.072 74.8096 399.808C76.2816 396.544 78.3296 393.728 80.9536 391.36C83.5776 388.992 86.6496 387.168 90.1696 385.888C93.6896 384.608 97.4976 383.968 101.594 383.968C105.562 383.968 109.21 384.608 112.538 385.888C115.866 387.104 118.746 388.864 121.178 391.168C123.674 393.472 125.594 396.192 126.938 399.328C128.282 402.464 128.89 405.92 128.762 409.696L128.666 414.016H82.6816L80.4736 405.088H116.186L114.554 407.008V405.088C114.362 403.488 113.658 402.048 112.442 400.768C111.29 399.488 109.786 398.496 107.93 397.792C106.074 397.024 104.026 396.64 101.786 396.64C98.9056 396.64 96.3456 397.12 94.1056 398.08C91.8656 398.976 90.1056 400.384 88.8256 402.304C87.6096 404.224 87.0016 406.656 87.0016 409.6C87.0016 412.416 87.7376 414.88 89.2096 416.992C90.7456 419.104 92.8896 420.768 95.6416 421.984C98.4576 423.2 101.754 423.808 105.53 423.808C108.794 423.808 111.514 423.424 113.69 422.656C115.93 421.824 117.946 420.8 119.738 419.584L126.65 429.568C124.538 431.168 122.202 432.544 119.642 433.696C117.146 434.784 114.522 435.584 111.77 436.096C109.082 436.672 106.33 436.96 103.514 436.96ZM148.598 436V385.024H164.054V436H148.598ZM156.278 374.56C153.398 374.56 151.158 373.888 149.558 372.544C147.958 371.136 147.158 369.152 147.158 366.592C147.158 364.288 147.958 362.4 149.558 360.928C151.222 359.456 153.462 358.72 156.278 358.72C159.158 358.72 161.398 359.424 162.998 360.832C164.598 362.176 165.398 364.096 165.398 366.592C165.398 368.96 164.566 370.88 162.902 372.352C161.302 373.824 159.094 374.56 156.278 374.56ZM188.509 436V385.024H203.101L203.581 395.776L200.797 395.104C201.629 393.568 202.717 392.128 204.061 390.784C205.469 389.44 207.037 388.288 208.765 387.328C210.557 386.304 212.477 385.504 214.525 384.928C216.573 384.352 218.781 384.064 221.149 384.064C223.901 384.064 226.429 384.48 228.733 385.312C231.101 386.144 233.117 387.52 234.781 389.44C236.445 391.296 237.725 393.792 238.621 396.928L235.453 396.544L236.221 395.008C237.245 393.536 238.461 392.16 239.869 390.88C241.341 389.536 243.005 388.384 244.861 387.424C246.717 386.4 248.701 385.6 250.813 385.024C252.925 384.384 255.101 384.064 257.341 384.064C262.013 384.064 265.821 384.96 268.765 386.752C271.709 388.48 273.885 390.944 275.293 394.144C276.701 397.344 277.405 401.056 277.405 405.28V436H261.949V406.912C261.949 404.864 261.629 403.104 260.989 401.632C260.349 400.16 259.357 399.04 258.013 398.272C256.733 397.44 255.069 397.024 253.021 397.024C251.229 397.024 249.565 397.312 248.029 397.888C246.557 398.464 245.245 399.264 244.093 400.288C243.005 401.248 242.141 402.4 241.501 403.744C240.925 405.024 240.637 406.432 240.637 407.968V436H225.181V406.816C225.181 404.832 224.829 403.104 224.125 401.632C223.421 400.16 222.333 399.04 220.861 398.272C219.389 397.44 217.565 397.024 215.389 397.024C213.661 397.024 212.093 397.344 210.685 397.984C209.341 398.56 208.157 399.36 207.133 400.384C206.109 401.344 205.309 402.4 204.733 403.552C204.221 404.704 203.965 405.888 203.965 407.104V436H188.509ZM320.227 436.864C315.171 436.864 310.755 435.744 306.979 433.504C303.203 431.264 300.227 428.16 298.051 424.192C295.939 420.16 294.883 415.584 294.883 410.464C294.883 405.28 295.971 400.704 298.147 396.736C300.323 392.768 303.331 389.664 307.171 387.424C311.075 385.12 315.555 383.968 320.611 383.968C323.491 383.968 326.147 384.352 328.579 385.12C331.011 385.824 333.123 386.816 334.915 388.096C336.771 389.376 338.275 390.784 339.427 392.32C340.643 393.856 341.443 395.456 341.827 397.12H338.467V385.024H353.635V436H338.179V422.944L341.443 423.424C341.059 425.088 340.259 426.72 339.043 428.32C337.827 429.92 336.259 431.36 334.339 432.64C332.419 433.92 330.243 434.944 327.811 435.712C325.443 436.48 322.915 436.864 320.227 436.864ZM324.355 423.904C327.235 423.904 329.731 423.36 331.843 422.272C334.019 421.184 335.683 419.648 336.835 417.664C338.051 415.616 338.659 413.216 338.659 410.464C338.659 407.776 338.051 405.44 336.835 403.456C335.683 401.408 334.019 399.808 331.843 398.656C329.731 397.504 327.235 396.928 324.355 396.928C321.475 396.928 318.979 397.504 316.867 398.656C314.755 399.808 313.091 401.408 311.875 403.456C310.723 405.44 310.147 407.776 310.147 410.464C310.147 413.216 310.723 415.616 311.875 417.664C313.091 419.648 314.755 421.184 316.867 422.272C318.979 423.36 321.475 423.904 324.355 423.904ZM402.962 458.08C397.906 458.08 393.202 457.44 388.85 456.16C384.562 454.944 381.042 453.408 378.29 451.552L383.57 440.608C384.978 441.376 386.546 442.112 388.274 442.816C390.066 443.52 392.018 444.096 394.13 444.544C396.242 445.056 398.546 445.312 401.042 445.312C404.306 445.312 407.058 444.768 409.298 443.68C411.602 442.592 413.33 440.928 414.482 438.688C415.698 436.512 416.306 433.824 416.306 430.624V423.616L419.282 424.096C418.77 426.144 417.49 428.032 415.442 429.76C413.394 431.488 410.834 432.896 407.762 433.984C404.69 435.072 401.426 435.616 397.97 435.616C392.914 435.616 388.466 434.56 384.626 432.448C380.786 430.272 377.746 427.296 375.506 423.52C373.33 419.68 372.242 415.264 372.242 410.272C372.242 405.152 373.362 400.64 375.602 396.736C377.842 392.768 380.914 389.664 384.818 387.424C388.722 385.12 393.234 383.968 398.354 383.968C400.082 383.968 401.874 384.192 403.73 384.64C405.65 385.024 407.506 385.568 409.298 386.272C411.154 386.912 412.818 387.744 414.29 388.768C415.826 389.728 417.074 390.816 418.034 392.032C419.058 393.184 419.634 394.432 419.762 395.776L416.594 396.544L417.266 385.024H431.762V430.336C431.762 434.88 431.026 438.848 429.554 442.24C428.146 445.696 426.162 448.608 423.602 450.976C421.042 453.344 417.97 455.104 414.386 456.256C410.866 457.472 407.058 458.08 402.962 458.08ZM402.386 423.712C405.266 423.712 407.794 423.168 409.97 422.08C412.146 420.928 413.81 419.36 414.962 417.376C416.178 415.392 416.786 413.056 416.786 410.368C416.786 407.68 416.178 405.344 414.962 403.36C413.81 401.312 412.146 399.744 409.97 398.656C407.794 397.504 405.266 396.928 402.386 396.928C399.378 396.928 396.754 397.504 394.514 398.656C392.274 399.744 390.546 401.312 389.33 403.36C388.114 405.344 387.506 407.68 387.506 410.368C387.506 413.056 388.114 415.392 389.33 417.376C390.546 419.36 392.274 420.928 394.514 422.08C396.754 423.168 399.378 423.712 402.386 423.712ZM456.005 436V385.024H471.461V436H456.005ZM463.685 374.56C460.805 374.56 458.565 373.888 456.965 372.544C455.365 371.136 454.565 369.152 454.565 366.592C454.565 364.288 455.365 362.4 456.965 360.928C458.629 359.456 460.869 358.72 463.685 358.72C466.565 358.72 468.805 359.424 470.405 360.832C472.005 362.176 472.805 364.096 472.805 366.592C472.805 368.96 471.973 370.88 470.309 372.352C468.709 373.824 466.501 374.56 463.685 374.56ZM496.299 436V385.024H510.891L511.371 396.928L507.723 397.984C508.555 395.488 509.963 393.184 511.947 391.072C513.995 388.96 516.459 387.264 519.339 385.984C522.283 384.64 525.451 383.968 528.843 383.968C533.195 383.968 536.875 384.832 539.883 386.56C542.891 388.288 545.163 390.752 546.699 393.952C548.235 397.088 549.003 400.832 549.003 405.184V436H533.547V407.392C533.547 405.152 533.131 403.264 532.299 401.728C531.531 400.192 530.347 399.008 528.747 398.176C527.211 397.344 525.419 396.928 523.371 396.928C521.579 396.928 519.947 397.248 518.475 397.888C517.067 398.464 515.851 399.264 514.827 400.288C513.803 401.248 513.003 402.336 512.427 403.552C511.915 404.768 511.659 406.016 511.659 407.296V436H504.075C501.963 436 500.267 436 498.987 436C497.707 436 496.811 436 496.299 436ZM597.67 436.96C591.462 436.96 586.022 435.84 581.35 433.6C576.742 431.296 573.158 428.192 570.598 424.288C568.038 420.32 566.758 415.808 566.758 410.752C566.758 406.72 567.494 403.072 568.966 399.808C570.438 396.544 572.486 393.728 575.11 391.36C577.734 388.992 580.806 387.168 584.326 385.888C587.846 384.608 591.654 383.968 595.75 383.968C599.718 383.968 603.366 384.608 606.694 385.888C610.022 387.104 612.902 388.864 615.334 391.168C617.83 393.472 619.75 396.192 621.094 399.328C622.438 402.464 623.046 405.92 622.918 409.696L622.822 414.016H576.838L574.63 405.088H610.342L608.71 407.008V405.088C608.518 403.488 607.814 402.048 606.598 400.768C605.446 399.488 603.942 398.496 602.086 397.792C600.23 397.024 598.182 396.64 595.942 396.64C593.062 396.64 590.502 397.12 588.262 398.08C586.022 398.976 584.262 400.384 582.982 402.304C581.766 404.224 581.158 406.656 581.158 409.6C581.158 412.416 581.894 414.88 583.366 416.992C584.902 419.104 587.046 420.768 589.798 421.984C592.614 423.2 595.91 423.808 599.686 423.808C602.95 423.808 605.67 423.424 607.846 422.656C610.086 421.824 612.102 420.8 613.894 419.584L620.806 429.568C618.694 431.168 616.358 432.544 613.798 433.696C611.302 434.784 608.678 435.584 605.926 436.096C603.238 436.672 600.486 436.96 597.67 436.96ZM661.379 437.056C656.387 437.056 652.003 435.936 648.227 433.696C644.451 431.392 641.507 428.256 639.395 424.288C637.283 420.256 636.227 415.68 636.227 410.56C636.227 405.44 637.315 400.896 639.491 396.928C641.667 392.896 644.675 389.728 648.515 387.424C652.419 385.12 656.899 383.968 661.955 383.968C664.771 383.968 667.395 384.352 669.827 385.12C672.259 385.824 674.435 386.784 676.355 388C678.339 389.216 679.907 390.624 681.059 392.224C682.275 393.76 682.979 395.328 683.171 396.928L679.523 397.792V364.96H694.979V436H680.675L679.811 423.616L682.883 424.384C682.691 425.984 681.987 427.552 680.771 429.088C679.555 430.56 677.955 431.904 675.971 433.12C674.051 434.272 671.843 435.232 669.347 436C666.851 436.704 664.195 437.056 661.379 437.056ZM665.699 424.096C668.579 424.096 671.075 423.52 673.187 422.368C675.363 421.216 677.027 419.648 678.179 417.664C679.331 415.616 679.907 413.248 679.907 410.56C679.907 407.808 679.331 405.44 678.179 403.456C677.027 401.408 675.363 399.84 673.187 398.752C671.075 397.6 668.579 397.024 665.699 397.024C662.819 397.024 660.323 397.6 658.211 398.752C656.099 399.84 654.435 401.408 653.219 403.456C652.067 405.44 651.491 407.808 651.491 410.56C651.491 413.248 652.067 415.616 653.219 417.664C654.435 419.648 656.099 421.216 658.211 422.368C660.323 423.52 662.819 424.096 665.699 424.096Z" fill="#1929FE"/>
</svg>
