<svg width="763" height="73" viewBox="0 0 763 73" fill="none" xmlns="http://www.w3.org/2000/svg">
<path d="M0.794 25V2.6H2.394V23.4H15.162V25H0.794ZM27.924 25.32C26.0893 25.32 24.4573 24.9573 23.028 24.232C21.62 23.5067 20.5213 22.4933 19.732 21.192C18.9427 19.8907 18.548 18.376 18.548 16.648C18.548 15.3467 18.772 14.1733 19.22 13.128C19.6893 12.0827 20.3293 11.176 21.14 10.408C21.9507 9.61867 22.9107 9.02133 24.02 8.616C25.1293 8.18933 26.324 7.976 27.604 7.976C28.884 7.976 30.0467 8.168 31.092 8.552C32.1373 8.91467 33.0227 9.45867 33.748 10.184C34.4947 10.888 35.06 11.7307 35.444 12.712C35.828 13.6933 35.9987 14.7813 35.956 15.976L35.924 16.968H19.828V15.496H35.06L34.388 15.944L34.356 15.176C34.356 14.3227 34.0893 13.4693 33.556 12.616C33.044 11.7413 32.2867 11.016 31.284 10.44C30.2813 9.864 29.044 9.576 27.572 9.576C26.228 9.576 25.0013 9.832 23.892 10.344C22.7827 10.8347 21.8973 11.6027 21.236 12.648C20.5747 13.672 20.244 14.9733 20.244 16.552C20.244 18.0027 20.564 19.2613 21.204 20.328C21.844 21.3947 22.7507 22.2267 23.924 22.824C25.1187 23.4 26.5587 23.688 28.244 23.688C29.3747 23.688 30.42 23.5493 31.38 23.272C32.34 22.9733 33.364 22.4293 34.452 21.64L35.188 22.888C34.6333 23.3147 33.9933 23.72 33.268 24.104C32.564 24.488 31.764 24.7867 30.868 25C29.9933 25.2133 29.012 25.32 27.924 25.32ZM45.1635 25V3.528H46.7635V25H45.1635ZM40.2995 9.832V8.36H52.1715V9.832H40.2995ZM56.9678 8.488L56.3598 7.624C56.9784 7.21867 57.4584 6.81333 57.7998 6.408C58.1411 6.00267 58.3118 5.56533 58.3118 5.096C58.3118 4.84 58.2691 4.60533 58.1838 4.392C58.1198 4.17867 57.8958 3.912 57.5118 3.592C57.3411 3.464 57.1598 3.29333 56.9678 3.08C56.7971 2.84533 56.7118 2.58933 56.7118 2.312C56.7118 1.88533 56.8398 1.55467 57.0958 1.32C57.3731 1.064 57.7251 0.935999 58.1518 0.935999C58.6211 0.935999 59.0158 1.05333 59.3358 1.288C59.6558 1.50133 59.9011 1.81067 60.0718 2.216C60.2638 2.62133 60.3598 3.10133 60.3598 3.656C60.3598 4.18933 60.2851 4.66933 60.1358 5.096C60.0078 5.52267 59.8051 5.93867 59.5278 6.344C59.2504 6.728 58.8984 7.10133 58.4718 7.464C58.0664 7.80533 57.5651 8.14667 56.9678 8.488ZM73.17 25.32C71.4847 25.32 69.9807 25.032 68.658 24.456C67.3353 23.88 66.3007 23.1547 65.554 22.28L66.77 21.16C67.4527 22.0133 68.3487 22.664 69.458 23.112C70.5673 23.5387 71.7833 23.752 73.106 23.752C73.8527 23.752 74.546 23.688 75.186 23.56C75.8473 23.432 76.4127 23.2507 76.882 23.016C77.3727 22.7813 77.7567 22.472 78.034 22.088C78.3113 21.6827 78.45 21.224 78.45 20.712C78.45 19.8587 77.97 19.1547 77.01 18.6C76.5407 18.3653 75.954 18.1413 75.25 17.928C74.5673 17.6933 73.7567 17.48 72.818 17.288C71.538 16.968 70.4393 16.68 69.522 16.424C68.6047 16.1467 67.8793 15.7947 67.346 15.368C66.9407 15.0267 66.6313 14.632 66.418 14.184C66.226 13.736 66.13 13.2347 66.13 12.68C66.13 11.9973 66.29 11.368 66.61 10.792C66.93 10.216 67.3887 9.71467 67.986 9.288C68.6047 8.86133 69.3087 8.54133 70.098 8.328C70.8873 8.09333 71.7727 7.976 72.754 7.976C73.6287 7.976 74.514 8.09333 75.41 8.328C76.3273 8.54133 77.1807 8.85067 77.97 9.256C78.7807 9.66133 79.474 10.1413 80.05 10.696L78.994 11.912C78.482 11.4427 77.906 11.0267 77.266 10.664C76.6473 10.28 75.954 9.98133 75.186 9.768C74.4393 9.55467 73.65 9.448 72.818 9.448C72.1567 9.448 71.5167 9.52267 70.898 9.672C70.3007 9.8 69.778 10.0133 69.33 10.312C68.882 10.5893 68.5193 10.92 68.242 11.304C67.9647 11.688 67.826 12.1147 67.826 12.584C67.8047 12.9893 67.8793 13.3307 68.05 13.608C68.2207 13.864 68.466 14.0987 68.786 14.312C69.234 14.6107 69.8207 14.8667 70.546 15.08C71.2713 15.272 72.1673 15.4853 73.234 15.72C74.2367 15.9333 75.1327 16.1467 75.922 16.36C76.7113 16.5733 77.3833 16.8293 77.938 17.128C78.6633 17.5333 79.2073 18.0133 79.57 18.568C79.954 19.1227 80.146 19.7733 80.146 20.52C80.146 21.48 79.8473 22.3227 79.25 23.048C78.674 23.752 77.8633 24.3067 76.818 24.712C75.7727 25.1173 74.5567 25.32 73.17 25.32ZM104.17 25.32C102.485 25.32 100.981 25.032 99.658 24.456C98.3353 23.88 97.3007 23.1547 96.554 22.28L97.77 21.16C98.4527 22.0133 99.3487 22.664 100.458 23.112C101.567 23.5387 102.783 23.752 104.106 23.752C104.853 23.752 105.546 23.688 106.186 23.56C106.847 23.432 107.413 23.2507 107.882 23.016C108.373 22.7813 108.757 22.472 109.034 22.088C109.311 21.6827 109.45 21.224 109.45 20.712C109.45 19.8587 108.97 19.1547 108.01 18.6C107.541 18.3653 106.954 18.1413 106.25 17.928C105.567 17.6933 104.757 17.48 103.818 17.288C102.538 16.968 101.439 16.68 100.522 16.424C99.6047 16.1467 98.8793 15.7947 98.346 15.368C97.9407 15.0267 97.6313 14.632 97.418 14.184C97.226 13.736 97.13 13.2347 97.13 12.68C97.13 11.9973 97.29 11.368 97.61 10.792C97.93 10.216 98.3887 9.71467 98.986 9.288C99.6047 8.86133 100.309 8.54133 101.098 8.328C101.887 8.09333 102.773 7.976 103.754 7.976C104.629 7.976 105.514 8.09333 106.41 8.328C107.327 8.54133 108.181 8.85067 108.97 9.256C109.781 9.66133 110.474 10.1413 111.05 10.696L109.994 11.912C109.482 11.4427 108.906 11.0267 108.266 10.664C107.647 10.28 106.954 9.98133 106.186 9.768C105.439 9.55467 104.65 9.448 103.818 9.448C103.157 9.448 102.517 9.52267 101.898 9.672C101.301 9.8 100.778 10.0133 100.33 10.312C99.882 10.5893 99.5193 10.92 99.242 11.304C98.9647 11.688 98.826 12.1147 98.826 12.584C98.8047 12.9893 98.8793 13.3307 99.05 13.608C99.2207 13.864 99.466 14.0987 99.786 14.312C100.234 14.6107 100.821 14.8667 101.546 15.08C102.271 15.272 103.167 15.4853 104.234 15.72C105.237 15.9333 106.133 16.1467 106.922 16.36C107.711 16.5733 108.383 16.8293 108.938 17.128C109.663 17.5333 110.207 18.0133 110.57 18.568C110.954 19.1227 111.146 19.7733 111.146 20.52C111.146 21.48 110.847 22.3227 110.25 23.048C109.674 23.752 108.863 24.3067 107.818 24.712C106.773 25.1173 105.557 25.32 104.17 25.32ZM120.632 25V3.528H122.232V25H120.632ZM115.768 9.832V8.36H127.64V9.832H115.768ZM140.632 25.32C138.84 25.32 137.283 24.9573 135.96 24.232C134.638 23.4853 133.603 22.4613 132.856 21.16C132.11 19.8587 131.736 18.3653 131.736 16.68C131.736 14.9947 132.12 13.5013 132.888 12.2C133.678 10.8773 134.734 9.84267 136.056 9.096C137.4 8.34933 138.915 7.976 140.6 7.976C141.624 7.976 142.584 8.12533 143.48 8.424C144.398 8.70133 145.208 9.096 145.912 9.608C146.638 10.12 147.235 10.696 147.704 11.336C148.174 11.9547 148.472 12.616 148.6 13.32L147.928 12.968L148.088 8.36H149.592V25H148.024V20.584L148.6 19.912C148.43 20.6373 148.099 21.3307 147.608 21.992C147.139 22.632 146.552 23.208 145.848 23.72C145.144 24.2107 144.344 24.6053 143.448 24.904C142.552 25.1813 141.614 25.32 140.632 25.32ZM140.824 23.72C142.211 23.72 143.459 23.4213 144.568 22.824C145.678 22.2053 146.552 21.3733 147.192 20.328C147.832 19.2613 148.152 18.0347 148.152 16.648C148.152 15.304 147.832 14.0987 147.192 13.032C146.574 11.9653 145.71 11.1227 144.6 10.504C143.491 9.864 142.232 9.544 140.824 9.544C139.374 9.544 138.094 9.864 136.984 10.504C135.875 11.1227 135 11.9653 134.36 13.032C133.742 14.0987 133.432 15.304 133.432 16.648C133.432 18.0133 133.731 19.2293 134.328 20.296C134.947 21.3627 135.811 22.2053 136.92 22.824C138.03 23.4213 139.331 23.72 140.824 23.72ZM157.786 25V8.36H159.323L159.483 12.392L159.131 12.584C159.429 11.7307 159.867 10.9627 160.443 10.28C161.019 9.576 161.701 9.02133 162.491 8.616C163.301 8.18933 164.219 7.976 165.243 7.976C165.776 7.976 166.288 8.02933 166.779 8.136C167.269 8.22133 167.685 8.33867 168.027 8.488L167.515 10.28C167.152 10.0667 166.747 9.928 166.299 9.864C165.872 9.77867 165.488 9.736 165.147 9.736C164.165 9.736 163.312 9.896 162.587 10.216C161.883 10.536 161.285 10.984 160.795 11.56C160.325 12.1147 159.973 12.744 159.739 13.448C159.504 14.1307 159.387 14.8347 159.387 15.56V25H157.786ZM177.039 25V3.528H178.639V25H177.039ZM172.174 9.832V8.36H184.047V9.832H172.174ZM204.949 25L198.868 8.36H200.757L205.749 22.888L204.981 22.824L210.581 10.632H211.701L217.365 22.824L216.469 22.888L221.781 8.36H223.541L217.333 25H216.725L210.549 11.464L211.861 11.4L205.653 25H204.949ZM228.818 25V1.32H230.418V12.712L229.906 13.288C230.14 12.264 230.62 11.3573 231.346 10.568C232.071 9.75733 232.935 9.128 233.938 8.68C234.962 8.21067 235.996 7.976 237.042 7.976C238.514 7.976 239.73 8.25333 240.69 8.808C241.671 9.36267 242.396 10.1733 242.866 11.24C243.335 12.2853 243.57 13.5547 243.57 15.048V25H241.97V15.208C241.97 13.9707 241.767 12.936 241.362 12.104C240.956 11.272 240.359 10.632 239.57 10.184C238.802 9.71467 237.863 9.49067 236.754 9.512C235.858 9.512 235.026 9.672 234.258 9.992C233.49 10.312 232.818 10.7493 232.242 11.304C231.666 11.8587 231.218 12.4773 230.898 13.16C230.578 13.8427 230.418 14.5467 230.418 15.272V25H229.618C229.49 25 229.362 25 229.234 25C229.127 25 228.988 25 228.818 25ZM259.237 25.32C257.402 25.32 255.77 24.9573 254.341 24.232C252.933 23.5067 251.834 22.4933 251.045 21.192C250.255 19.8907 249.861 18.376 249.861 16.648C249.861 15.3467 250.085 14.1733 250.533 13.128C251.002 12.0827 251.642 11.176 252.453 10.408C253.263 9.61867 254.223 9.02133 255.333 8.616C256.442 8.18933 257.637 7.976 258.917 7.976C260.197 7.976 261.359 8.168 262.405 8.552C263.45 8.91467 264.335 9.45867 265.061 10.184C265.807 10.888 266.373 11.7307 266.757 12.712C267.141 13.6933 267.311 14.7813 267.269 15.976L267.237 16.968H251.141V15.496H266.373L265.701 15.944L265.669 15.176C265.669 14.3227 265.402 13.4693 264.869 12.616C264.357 11.7413 263.599 11.016 262.597 10.44C261.594 9.864 260.357 9.576 258.885 9.576C257.541 9.576 256.314 9.832 255.205 10.344C254.095 10.8347 253.21 11.6027 252.549 12.648C251.887 13.672 251.557 14.9733 251.557 16.552C251.557 18.0027 251.877 19.2613 252.516 20.328C253.157 21.3947 254.063 22.2267 255.237 22.824C256.431 23.4 257.871 23.688 259.557 23.688C260.687 23.688 261.733 23.5493 262.693 23.272C263.653 22.9733 264.677 22.4293 265.765 21.64L266.501 22.888C265.946 23.3147 265.306 23.72 264.581 24.104C263.877 24.488 263.077 24.7867 262.181 25C261.306 25.2133 260.325 25.32 259.237 25.32ZM273.724 25V8.36H275.26L275.42 12.392L275.068 12.584C275.367 11.7307 275.804 10.9627 276.38 10.28C276.956 9.576 277.639 9.02133 278.428 8.616C279.239 8.18933 280.156 7.976 281.18 7.976C281.713 7.976 282.225 8.02933 282.716 8.136C283.207 8.22133 283.623 8.33867 283.964 8.488L283.452 10.28C283.089 10.0667 282.684 9.928 282.236 9.864C281.809 9.77867 281.425 9.736 281.084 9.736C280.103 9.736 279.249 9.896 278.524 10.216C277.82 10.536 277.223 10.984 276.732 11.56C276.263 12.1147 275.911 12.744 275.676 13.448C275.441 14.1307 275.324 14.8347 275.324 15.56V25H273.724ZM296.08 25.32C294.246 25.32 292.614 24.9573 291.184 24.232C289.776 23.5067 288.678 22.4933 287.888 21.192C287.099 19.8907 286.704 18.376 286.704 16.648C286.704 15.3467 286.928 14.1733 287.376 13.128C287.846 12.0827 288.486 11.176 289.296 10.408C290.107 9.61867 291.067 9.02133 292.176 8.616C293.286 8.18933 294.48 7.976 295.76 7.976C297.04 7.976 298.203 8.168 299.248 8.552C300.294 8.91467 301.179 9.45867 301.904 10.184C302.651 10.888 303.216 11.7307 303.6 12.712C303.984 13.6933 304.155 14.7813 304.112 15.976L304.08 16.968H287.984V15.496H303.216L302.544 15.944L302.512 15.176C302.512 14.3227 302.246 13.4693 301.712 12.616C301.2 11.7413 300.443 11.016 299.44 10.44C298.438 9.864 297.2 9.576 295.728 9.576C294.384 9.576 293.158 9.832 292.048 10.344C290.939 10.8347 290.054 11.6027 289.392 12.648C288.731 13.672 288.4 14.9733 288.4 16.552C288.4 18.0027 288.72 19.2613 289.36 20.328C290 21.3947 290.907 22.2267 292.08 22.824C293.275 23.4 294.715 23.688 296.4 23.688C297.531 23.688 298.576 23.5493 299.536 23.272C300.496 22.9733 301.52 22.4293 302.608 21.64L303.344 22.888C302.79 23.3147 302.15 23.72 301.424 24.104C300.72 24.488 299.92 24.7867 299.024 25C298.15 25.2133 297.168 25.32 296.08 25.32ZM322.161 25V1.32H323.762V12.712L323.25 13.288C323.484 12.264 323.964 11.3573 324.69 10.568C325.415 9.75733 326.279 9.128 327.282 8.68C328.306 8.21067 329.34 7.976 330.386 7.976C331.858 7.976 333.074 8.25333 334.034 8.808C335.015 9.36267 335.74 10.1733 336.21 11.24C336.679 12.2853 336.914 13.5547 336.914 15.048V25H335.314V15.208C335.314 13.9707 335.111 12.936 334.706 12.104C334.3 11.272 333.703 10.632 332.914 10.184C332.146 9.71467 331.207 9.49067 330.098 9.512C329.202 9.512 328.37 9.672 327.602 9.992C326.834 10.312 326.162 10.7493 325.586 11.304C325.01 11.8587 324.562 12.4773 324.242 13.16C323.922 13.8427 323.762 14.5467 323.762 15.272V25H322.962C322.834 25 322.706 25 322.578 25C322.471 25 322.332 25 322.161 25ZM345.86 25V8.36H347.46V25H345.86ZM346.66 4.84C346.191 4.84 345.828 4.712 345.572 4.456C345.316 4.2 345.188 3.848 345.188 3.4C345.188 2.97333 345.316 2.632 345.572 2.376C345.828 2.09867 346.191 1.96 346.66 1.96C347.13 1.96 347.492 2.088 347.748 2.344C348.004 2.6 348.132 2.952 348.132 3.4C348.132 3.82667 348.004 4.17867 347.748 4.456C347.492 4.712 347.13 4.84 346.66 4.84ZM362.139 25.32C360.453 25.32 358.949 25.032 357.627 24.456C356.304 23.88 355.269 23.1547 354.523 22.28L355.739 21.16C356.421 22.0133 357.317 22.664 358.427 23.112C359.536 23.5387 360.752 23.752 362.075 23.752C362.821 23.752 363.515 23.688 364.155 23.56C364.816 23.432 365.381 23.2507 365.851 23.016C366.341 22.7813 366.725 22.472 367.003 22.088C367.28 21.6827 367.419 21.224 367.419 20.712C367.419 19.8587 366.939 19.1547 365.979 18.6C365.509 18.3653 364.923 18.1413 364.219 17.928C363.536 17.6933 362.725 17.48 361.787 17.288C360.507 16.968 359.408 16.68 358.491 16.424C357.573 16.1467 356.848 15.7947 356.315 15.368C355.909 15.0267 355.6 14.632 355.387 14.184C355.195 13.736 355.099 13.2347 355.099 12.68C355.099 11.9973 355.259 11.368 355.579 10.792C355.899 10.216 356.357 9.71467 356.955 9.288C357.573 8.86133 358.277 8.54133 359.067 8.328C359.856 8.09333 360.741 7.976 361.723 7.976C362.597 7.976 363.483 8.09333 364.379 8.328C365.296 8.54133 366.149 8.85067 366.939 9.256C367.749 9.66133 368.443 10.1413 369.019 10.696L367.963 11.912C367.451 11.4427 366.875 11.0267 366.235 10.664C365.616 10.28 364.923 9.98133 364.155 9.768C363.408 9.55467 362.619 9.448 361.787 9.448C361.125 9.448 360.485 9.52267 359.867 9.672C359.269 9.8 358.747 10.0133 358.299 10.312C357.851 10.5893 357.488 10.92 357.211 11.304C356.933 11.688 356.795 12.1147 356.795 12.584C356.773 12.9893 356.848 13.3307 357.019 13.608C357.189 13.864 357.435 14.0987 357.755 14.312C358.203 14.6107 358.789 14.8667 359.515 15.08C360.24 15.272 361.136 15.4853 362.203 15.72C363.205 15.9333 364.101 16.1467 364.891 16.36C365.68 16.5733 366.352 16.8293 366.907 17.128C367.632 17.5333 368.176 18.0133 368.539 18.568C368.923 19.1227 369.115 19.7733 369.115 20.52C369.115 21.48 368.816 22.3227 368.219 23.048C367.643 23.752 366.832 24.3067 365.787 24.712C364.741 25.1173 363.525 25.32 362.139 25.32ZM378.601 25V3.528H380.201V25H378.601ZM373.737 9.832V8.36H385.609V9.832H373.737ZM399.401 25.32C397.524 25.32 395.86 24.9467 394.409 24.2C392.98 23.4533 391.849 22.4187 391.017 21.096C390.206 19.7733 389.801 18.2693 389.801 16.584C389.801 14.92 390.206 13.4373 391.017 12.136C391.849 10.8347 392.98 9.82133 394.409 9.096C395.86 8.34933 397.524 7.976 399.401 7.976C401.257 7.976 402.9 8.34933 404.329 9.096C405.78 9.82133 406.91 10.8347 407.721 12.136C408.553 13.4373 408.969 14.92 408.969 16.584C408.969 18.2693 408.553 19.7733 407.721 21.096C406.91 22.3973 405.78 23.432 404.329 24.2C402.9 24.9467 401.257 25.32 399.401 25.32ZM399.401 23.72C400.894 23.72 402.238 23.4107 403.433 22.792C404.628 22.1733 405.566 21.3307 406.249 20.264C406.932 19.1973 407.273 17.9707 407.273 16.584C407.273 15.24 406.932 14.0347 406.249 12.968C405.566 11.9013 404.628 11.0693 403.433 10.472C402.238 9.87467 400.894 9.576 399.401 9.576C397.865 9.576 396.5 9.87467 395.305 10.472C394.11 11.0693 393.172 11.9013 392.489 12.968C391.828 14.0133 391.497 15.2187 391.497 16.584C391.497 17.9707 391.828 19.1973 392.489 20.264C393.172 21.3307 394.11 22.1733 395.305 22.792C396.521 23.4107 397.886 23.72 399.401 23.72ZM415.38 25V8.36H416.916L417.076 12.392L416.724 12.584C417.023 11.7307 417.46 10.9627 418.036 10.28C418.612 9.576 419.295 9.02133 420.084 8.616C420.895 8.18933 421.812 7.976 422.836 7.976C423.37 7.976 423.882 8.02933 424.372 8.136C424.863 8.22133 425.279 8.33867 425.62 8.488L425.108 10.28C424.746 10.0667 424.34 9.928 423.892 9.864C423.466 9.77867 423.082 9.736 422.74 9.736C421.759 9.736 420.906 9.896 420.18 10.216C419.476 10.536 418.879 10.984 418.388 11.56C417.919 12.1147 417.567 12.744 417.332 13.448C417.098 14.1307 416.98 14.8347 416.98 15.56V25H415.38ZM434.039 32.36L437.591 24.456L437.943 26.344L428.631 8.36H430.327L436.983 21.096C437.346 21.7573 437.655 22.3867 437.911 22.984C438.167 23.5813 438.402 24.1573 438.615 24.712L437.687 24.232C437.901 23.8053 438.093 23.4 438.263 23.016C438.434 22.6107 438.605 22.216 438.775 21.832L445.015 8.36H446.711L439.127 24.872L435.671 32.36H434.039ZM463.906 25V8.36H465.442L465.602 12.808L465.122 12.648C465.336 11.9653 465.666 11.3467 466.114 10.792C466.584 10.216 467.138 9.71467 467.778 9.288C468.418 8.86133 469.122 8.54133 469.89 8.328C470.658 8.09333 471.501 7.976 472.418 7.976C473.357 7.976 474.221 8.12533 475.01 8.424C475.8 8.72267 476.472 9.27733 477.026 10.088C477.581 10.8773 478.018 11.9653 478.338 13.352L477.666 12.84L477.794 12.36C478.029 11.848 478.36 11.336 478.786 10.824C479.234 10.2907 479.768 9.81067 480.386 9.384C481.026 8.95733 481.741 8.616 482.53 8.36C483.32 8.104 484.173 7.976 485.09 7.976C486.413 7.976 487.522 8.25333 488.418 8.808C489.336 9.36267 490.029 10.1733 490.498 11.24C490.968 12.2853 491.202 13.5547 491.202 15.048V25H489.602V15.208C489.602 13.9707 489.41 12.936 489.026 12.104C488.664 11.2507 488.12 10.6107 487.394 10.184C486.69 9.736 485.826 9.512 484.802 9.512C483.885 9.512 483.032 9.672 482.242 9.992C481.453 10.312 480.77 10.7493 480.194 11.304C479.618 11.8587 479.16 12.4773 478.818 13.16C478.498 13.8427 478.338 14.5573 478.338 15.304V25H476.738V15.208C476.738 13.9707 476.546 12.936 476.162 12.104C475.778 11.2507 475.224 10.6107 474.498 10.184C473.773 9.736 472.888 9.512 471.842 9.512C470.904 9.512 470.05 9.672 469.282 9.992C468.536 10.312 467.874 10.76 467.298 11.336C466.744 11.8907 466.306 12.5093 465.986 13.192C465.666 13.8533 465.506 14.5467 465.506 15.272V25H463.906ZM506.612 25.32C504.777 25.32 503.145 24.9573 501.716 24.232C500.308 23.5067 499.209 22.4933 498.42 21.192C497.63 19.8907 497.236 18.376 497.236 16.648C497.236 15.3467 497.46 14.1733 497.908 13.128C498.377 12.0827 499.017 11.176 499.828 10.408C500.638 9.61867 501.598 9.02133 502.708 8.616C503.817 8.18933 505.012 7.976 506.292 7.976C507.572 7.976 508.734 8.168 509.78 8.552C510.825 8.91467 511.71 9.45867 512.436 10.184C513.182 10.888 513.748 11.7307 514.132 12.712C514.516 13.6933 514.686 14.7813 514.644 15.976L514.612 16.968H498.516V15.496H513.748L513.076 15.944L513.044 15.176C513.044 14.3227 512.777 13.4693 512.244 12.616C511.732 11.7413 510.974 11.016 509.972 10.44C508.969 9.864 507.732 9.576 506.26 9.576C504.916 9.576 503.689 9.832 502.58 10.344C501.47 10.8347 500.585 11.6027 499.924 12.648C499.262 13.672 498.932 14.9733 498.932 16.552C498.932 18.0027 499.252 19.2613 499.891 20.328C500.532 21.3947 501.438 22.2267 502.612 22.824C503.806 23.4 505.246 23.688 506.932 23.688C508.062 23.688 509.108 23.5493 510.068 23.272C511.028 22.9733 512.052 22.4293 513.14 21.64L513.876 22.888C513.321 23.3147 512.681 23.72 511.956 24.104C511.252 24.488 510.452 24.7867 509.556 25C508.681 25.2133 507.7 25.32 506.612 25.32ZM528.299 25.32C526.464 25.32 524.832 24.9573 523.403 24.232C521.995 23.5067 520.896 22.4933 520.107 21.192C519.318 19.8907 518.923 18.376 518.923 16.648C518.923 15.3467 519.147 14.1733 519.595 13.128C520.064 12.0827 520.704 11.176 521.515 10.408C522.326 9.61867 523.286 9.02133 524.395 8.616C525.504 8.18933 526.699 7.976 527.979 7.976C529.259 7.976 530.422 8.168 531.467 8.552C532.512 8.91467 533.398 9.45867 534.123 10.184C534.87 10.888 535.435 11.7307 535.819 12.712C536.203 13.6933 536.374 14.7813 536.331 15.976L536.299 16.968H520.203V15.496H535.435L534.763 15.944L534.731 15.176C534.731 14.3227 534.464 13.4693 533.931 12.616C533.419 11.7413 532.662 11.016 531.659 10.44C530.656 9.864 529.419 9.576 527.947 9.576C526.603 9.576 525.376 9.832 524.267 10.344C523.158 10.8347 522.272 11.6027 521.611 12.648C520.95 13.672 520.619 14.9733 520.619 16.552C520.619 18.0027 520.939 19.2613 521.579 20.328C522.219 21.3947 523.126 22.2267 524.299 22.824C525.494 23.4 526.934 23.688 528.619 23.688C529.75 23.688 530.795 23.5493 531.755 23.272C532.715 22.9733 533.739 22.4293 534.827 21.64L535.563 22.888C535.008 23.3147 534.368 23.72 533.643 24.104C532.939 24.488 532.139 24.7867 531.243 25C530.368 25.2133 529.387 25.32 528.299 25.32ZM545.539 25V3.528H547.139V25H545.539ZM540.674 9.832V8.36H552.547V9.832H540.674ZM565.264 25.32C563.578 25.32 562.074 25.032 560.752 24.456C559.429 23.88 558.394 23.1547 557.648 22.28L558.864 21.16C559.546 22.0133 560.442 22.664 561.552 23.112C562.661 23.5387 563.877 23.752 565.2 23.752C565.946 23.752 566.64 23.688 567.28 23.56C567.941 23.432 568.506 23.2507 568.976 23.016C569.466 22.7813 569.85 22.472 570.128 22.088C570.405 21.6827 570.544 21.224 570.544 20.712C570.544 19.8587 570.064 19.1547 569.104 18.6C568.634 18.3653 568.048 18.1413 567.344 17.928C566.661 17.6933 565.85 17.48 564.912 17.288C563.632 16.968 562.533 16.68 561.616 16.424C560.698 16.1467 559.973 15.7947 559.44 15.368C559.034 15.0267 558.725 14.632 558.512 14.184C558.32 13.736 558.224 13.2347 558.224 12.68C558.224 11.9973 558.384 11.368 558.704 10.792C559.024 10.216 559.482 9.71467 560.08 9.288C560.698 8.86133 561.402 8.54133 562.192 8.328C562.981 8.09333 563.866 7.976 564.848 7.976C565.722 7.976 566.608 8.09333 567.504 8.328C568.421 8.54133 569.274 8.85067 570.064 9.256C570.874 9.66133 571.568 10.1413 572.144 10.696L571.088 11.912C570.576 11.4427 570 11.0267 569.36 10.664C568.741 10.28 568.048 9.98133 567.28 9.768C566.533 9.55467 565.744 9.448 564.912 9.448C564.25 9.448 563.61 9.52267 562.992 9.672C562.394 9.8 561.872 10.0133 561.424 10.312C560.976 10.5893 560.613 10.92 560.336 11.304C560.058 11.688 559.92 12.1147 559.92 12.584C559.898 12.9893 559.973 13.3307 560.144 13.608C560.314 13.864 560.56 14.0987 560.88 14.312C561.328 14.6107 561.914 14.8667 562.64 15.08C563.365 15.272 564.261 15.4853 565.328 15.72C566.33 15.9333 567.226 16.1467 568.016 16.36C568.805 16.5733 569.477 16.8293 570.032 17.128C570.757 17.5333 571.301 18.0133 571.664 18.568C572.048 19.1227 572.24 19.7733 572.24 20.52C572.24 21.48 571.941 22.3227 571.344 23.048C570.768 23.752 569.957 24.3067 568.912 24.712C567.866 25.1173 566.65 25.32 565.264 25.32ZM597.704 25.32C595.912 25.32 594.322 24.9467 592.936 24.2C591.57 23.4533 590.493 22.4293 589.704 21.128C588.914 19.8267 588.52 18.3333 588.52 16.648C588.52 14.9627 588.914 13.4693 589.704 12.168C590.514 10.8453 591.613 9.82133 593 9.096C594.386 8.34933 595.986 7.976 597.8 7.976C599.314 7.976 600.722 8.24267 602.024 8.776C603.325 9.30933 604.434 10.0453 605.352 10.984L604.36 12.328C603.826 11.7733 603.208 11.2933 602.504 10.888C601.821 10.4613 601.053 10.1413 600.2 9.928C599.368 9.69333 598.482 9.576 597.544 9.576C596.157 9.576 594.909 9.88533 593.8 10.504C592.69 11.1013 591.816 11.9333 591.176 13C590.557 14.0667 590.248 15.2827 590.248 16.648C590.248 18.0347 590.568 19.2613 591.208 20.328C591.848 21.3733 592.712 22.2053 593.8 22.824C594.909 23.4213 596.125 23.72 597.448 23.72C598.429 23.72 599.336 23.6133 600.168 23.4C601.021 23.1653 601.778 22.856 602.44 22.472C603.122 22.088 603.73 21.6507 604.264 21.16L605.256 22.504C604.317 23.3573 603.197 24.04 601.896 24.552C600.616 25.064 599.218 25.32 597.704 25.32ZM611.568 25V8.36H613.104L613.264 12.392L612.912 12.584C613.21 11.7307 613.648 10.9627 614.224 10.28C614.8 9.576 615.482 9.02133 616.272 8.616C617.082 8.18933 618 7.976 619.024 7.976C619.557 7.976 620.069 8.02933 620.56 8.136C621.05 8.22133 621.466 8.33867 621.808 8.488L621.296 10.28C620.933 10.0667 620.528 9.928 620.08 9.864C619.653 9.77867 619.269 9.736 618.928 9.736C617.946 9.736 617.093 9.896 616.368 10.216C615.664 10.536 615.066 10.984 614.576 11.56C614.106 12.1147 613.754 12.744 613.52 13.448C613.285 14.1307 613.168 14.8347 613.168 15.56V25H611.568ZM633.924 25.32C632.089 25.32 630.457 24.9573 629.028 24.232C627.62 23.5067 626.521 22.4933 625.732 21.192C624.943 19.8907 624.548 18.376 624.548 16.648C624.548 15.3467 624.772 14.1733 625.22 13.128C625.689 12.0827 626.329 11.176 627.14 10.408C627.951 9.61867 628.911 9.02133 630.02 8.616C631.129 8.18933 632.324 7.976 633.604 7.976C634.884 7.976 636.047 8.168 637.092 8.552C638.137 8.91467 639.023 9.45867 639.748 10.184C640.495 10.888 641.06 11.7307 641.444 12.712C641.828 13.6933 641.999 14.7813 641.956 15.976L641.924 16.968H625.828V15.496H641.06L640.388 15.944L640.356 15.176C640.356 14.3227 640.089 13.4693 639.556 12.616C639.044 11.7413 638.287 11.016 637.284 10.44C636.281 9.864 635.044 9.576 633.572 9.576C632.228 9.576 631.001 9.832 629.892 10.344C628.783 10.8347 627.897 11.6027 627.236 12.648C626.575 13.672 626.244 14.9733 626.244 16.552C626.244 18.0027 626.564 19.2613 627.204 20.328C627.844 21.3947 628.751 22.2267 629.924 22.824C631.119 23.4 632.559 23.688 634.244 23.688C635.375 23.688 636.42 23.5493 637.38 23.272C638.34 22.9733 639.364 22.4293 640.452 21.64L641.188 22.888C640.633 23.3147 639.993 23.72 639.268 24.104C638.564 24.488 637.764 24.7867 636.868 25C635.993 25.2133 635.012 25.32 633.924 25.32ZM655.164 25.32C653.372 25.32 651.814 24.9573 650.492 24.232C649.169 23.4853 648.134 22.4613 647.388 21.16C646.641 19.8587 646.268 18.3653 646.268 16.68C646.268 14.9947 646.652 13.5013 647.42 12.2C648.209 10.8773 649.265 9.84267 650.588 9.096C651.932 8.34933 653.446 7.976 655.132 7.976C656.156 7.976 657.116 8.12533 658.012 8.424C658.929 8.70133 659.74 9.096 660.444 9.608C661.169 10.12 661.766 10.696 662.236 11.336C662.705 11.9547 663.004 12.616 663.132 13.32L662.46 12.968L662.62 8.36H664.124V25H662.556V20.584L663.132 19.912C662.961 20.6373 662.63 21.3307 662.14 21.992C661.67 22.632 661.084 23.208 660.38 23.72C659.676 24.2107 658.876 24.6053 657.98 24.904C657.084 25.1813 656.145 25.32 655.164 25.32ZM655.356 23.72C656.742 23.72 657.99 23.4213 659.1 22.824C660.209 22.2053 661.084 21.3733 661.724 20.328C662.364 19.2613 662.684 18.0347 662.684 16.648C662.684 15.304 662.364 14.0987 661.724 13.032C661.105 11.9653 660.241 11.1227 659.132 10.504C658.022 9.864 656.764 9.544 655.356 9.544C653.905 9.544 652.625 9.864 651.516 10.504C650.406 11.1227 649.532 11.9653 648.891 13.032C648.273 14.0987 647.964 15.304 647.964 16.648C647.964 18.0133 648.262 19.2293 648.86 20.296C649.478 21.3627 650.342 22.2053 651.452 22.824C652.561 23.4213 653.862 23.72 655.356 23.72ZM675.07 25V3.528H676.67V25H675.07ZM670.206 9.832V8.36H682.078V9.832H670.206ZM688.954 25V8.36H690.554V25H688.954ZM689.754 4.84C689.285 4.84 688.922 4.712 688.666 4.456C688.41 4.2 688.282 3.848 688.282 3.4C688.282 2.97333 688.41 2.632 688.666 2.376C688.922 2.09867 689.285 1.96 689.754 1.96C690.223 1.96 690.586 2.088 690.842 2.344C691.098 2.6 691.226 2.952 691.226 3.4C691.226 3.82667 691.098 4.17867 690.842 4.456C690.586 4.712 690.223 4.84 689.754 4.84ZM704.401 25L696.368 8.36H698.257L705.265 23.368L704.625 23.816L712.369 8.36H714.193L705.681 25H704.401ZM719.954 25V8.36H721.554V25H719.954ZM720.754 4.84C720.285 4.84 719.922 4.712 719.666 4.456C719.41 4.2 719.282 3.848 719.282 3.4C719.282 2.97333 719.41 2.632 719.666 2.376C719.922 2.09867 720.285 1.96 720.754 1.96C721.223 1.96 721.586 2.088 721.842 2.344C722.098 2.6 722.226 2.952 722.226 3.4C722.226 3.82667 722.098 4.17867 721.842 4.456C721.586 4.712 721.223 4.84 720.754 4.84ZM733.289 25V3.528H734.889V25H733.289ZM728.424 9.832V8.36H740.297V9.832H728.424ZM749.477 32.36L753.029 24.456L753.381 26.344L744.069 8.36H745.765L752.421 21.096C752.783 21.7573 753.093 22.3867 753.349 22.984C753.605 23.5813 753.839 24.1573 754.053 24.712L753.125 24.232C753.338 23.8053 753.53 23.4 753.701 23.016C753.871 22.6107 754.042 22.216 754.213 21.832L760.453 8.36H762.149L754.565 24.872L751.109 32.36H749.477ZM170.53 56.424V54.856H195.81V56.424H170.53ZM205.414 65V43.528H207.014V65H205.414ZM200.549 49.832V48.36H212.422V49.832H200.549ZM225.282 65.32C223.767 65.32 222.508 65.0427 221.506 64.488C220.524 63.9333 219.778 63.1227 219.266 62.056C218.775 60.9893 218.53 59.6667 218.53 58.088V48.36H220.13V57.928C220.13 59.208 220.322 60.2853 220.706 61.16C221.09 62.0133 221.666 62.6533 222.434 63.08C223.202 63.5067 224.14 63.72 225.25 63.72C226.167 63.72 227.02 63.56 227.81 63.24C228.62 62.92 229.314 62.4933 229.89 61.96C230.466 61.4267 230.924 60.8187 231.266 60.136C231.607 59.4533 231.778 58.728 231.778 57.96V48.36H233.378V65H231.842L231.682 61.128H231.906C231.692 61.832 231.244 62.504 230.562 63.144C229.9 63.784 229.1 64.3067 228.162 64.712C227.244 65.1173 226.284 65.32 225.282 65.32ZM241.474 65V48.36H243.01L243.17 52.392L242.818 52.584C243.117 51.7307 243.554 50.9627 244.13 50.28C244.706 49.576 245.389 49.0213 246.178 48.616C246.989 48.1893 247.906 47.976 248.93 47.976C249.463 47.976 249.975 48.0293 250.466 48.136C250.957 48.2213 251.373 48.3387 251.714 48.488L251.202 50.28C250.839 50.0667 250.434 49.928 249.986 49.864C249.559 49.7787 249.175 49.736 248.834 49.736C247.853 49.736 246.999 49.896 246.274 50.216C245.57 50.536 244.973 50.984 244.482 51.56C244.013 52.1147 243.661 52.744 243.426 53.448C243.191 54.1307 243.074 54.8347 243.074 55.56V65H241.474ZM257.349 65V48.36H258.885L259.045 52.392L258.725 52.36C259.002 51.6133 259.472 50.9093 260.133 50.248C260.816 49.5653 261.637 49.0213 262.597 48.616C263.578 48.1893 264.624 47.976 265.733 47.976C267.098 47.976 268.261 48.2533 269.221 48.808C270.181 49.3627 270.896 50.1733 271.365 51.24C271.856 52.2853 272.101 53.5547 272.101 55.048V65H270.501V55.208C270.501 53.9707 270.288 52.936 269.861 52.104C269.456 51.272 268.869 50.632 268.101 50.184C267.333 49.736 266.416 49.512 265.349 49.512C264.41 49.512 263.557 49.6827 262.789 50.024C262.021 50.344 261.338 50.7813 260.741 51.336C260.165 51.8907 259.717 52.5093 259.397 53.192C259.098 53.8533 258.949 54.5467 258.949 55.272V65H258.149C258.106 65 258.021 65 257.893 65C257.765 65 257.584 65 257.349 65ZM281.048 65V48.36H282.648V65H281.048ZM281.848 44.84C281.378 44.84 281.016 44.712 280.76 44.456C280.504 44.2 280.376 43.848 280.376 43.4C280.376 42.9733 280.504 42.632 280.76 42.376C281.016 42.0987 281.378 41.96 281.848 41.96C282.317 41.96 282.68 42.088 282.936 42.344C283.192 42.6 283.32 42.952 283.32 43.4C283.32 43.8267 283.192 44.1787 282.936 44.456C282.68 44.712 282.317 44.84 281.848 44.84ZM291.63 65V48.36H293.166L293.326 52.392L293.006 52.36C293.284 51.6133 293.753 50.9093 294.414 50.248C295.097 49.5653 295.918 49.0213 296.878 48.616C297.86 48.1893 298.905 47.976 300.014 47.976C301.38 47.976 302.542 48.2533 303.502 48.808C304.462 49.3627 305.177 50.1733 305.646 51.24C306.137 52.2853 306.382 53.5547 306.382 55.048V65H304.782V55.208C304.782 53.9707 304.569 52.936 304.142 52.104C303.737 51.272 303.15 50.632 302.382 50.184C301.614 49.736 300.697 49.512 299.63 49.512C298.692 49.512 297.838 49.6827 297.07 50.024C296.302 50.344 295.62 50.7813 295.022 51.336C294.446 51.8907 293.998 52.5093 293.678 53.192C293.38 53.8533 293.23 54.5467 293.23 55.272V65H292.43C292.388 65 292.302 65 292.174 65C292.046 65 291.865 65 291.63 65ZM322.177 72.36C320.684 72.36 319.372 72.1467 318.241 71.72C317.132 71.3147 316.182 70.856 315.393 70.344L316.097 68.808C316.566 69.1493 317.1 69.4587 317.697 69.736C318.316 70.0347 319.009 70.28 319.777 70.472C320.545 70.664 321.377 70.76 322.273 70.76C323.617 70.76 324.79 70.4933 325.793 69.96C326.796 69.448 327.574 68.648 328.129 67.56C328.705 66.472 328.993 65.096 328.993 63.432V60.552L329.473 60.168C329.068 61.192 328.481 62.088 327.713 62.856C326.945 63.624 326.017 64.2213 324.929 64.648C323.841 65.0747 322.646 65.288 321.345 65.288C319.702 65.288 318.241 64.9147 316.961 64.168C315.681 63.4213 314.668 62.3973 313.921 61.096C313.174 59.7947 312.801 58.312 312.801 56.648C312.801 54.9627 313.185 53.4693 313.953 52.168C314.721 50.8667 315.756 49.8427 317.057 49.096C318.358 48.3493 319.83 47.976 321.473 47.976C322.177 47.976 322.881 48.0613 323.585 48.232C324.289 48.3813 324.94 48.5947 325.537 48.872C326.156 49.1493 326.721 49.5013 327.233 49.928C327.745 50.3547 328.193 50.8453 328.577 51.4C328.961 51.9333 329.27 52.5307 329.505 53.192L328.833 52.776L328.993 48.36H330.593V63.464C330.593 64.9787 330.369 66.2907 329.921 67.4C329.494 68.5093 328.897 69.4267 328.129 70.152C327.361 70.8773 326.454 71.4213 325.409 71.784C324.385 72.168 323.308 72.36 322.177 72.36ZM321.697 63.688C323.126 63.688 324.385 63.3893 325.473 62.792C326.582 62.1733 327.446 61.3413 328.065 60.296C328.705 59.2293 329.025 58.0133 329.025 56.648C329.025 55.2613 328.705 54.0347 328.065 52.968C327.446 51.9013 326.582 51.0693 325.473 50.472C324.385 49.8747 323.137 49.576 321.729 49.576C320.342 49.576 319.105 49.8853 318.017 50.504C316.929 51.1013 316.065 51.9333 315.425 53C314.806 54.0453 314.497 55.2507 314.497 56.616C314.497 57.96 314.806 59.1653 315.425 60.232C316.044 61.2987 316.886 62.1413 317.953 62.76C319.041 63.3787 320.289 63.688 321.697 63.688ZM357.932 65.32C356.055 65.32 354.391 64.9467 352.94 64.2C351.511 63.4533 350.38 62.4187 349.548 61.096C348.738 59.7733 348.332 58.2693 348.332 56.584C348.332 54.92 348.738 53.4373 349.548 52.136C350.38 50.8347 351.511 49.8213 352.94 49.096C354.391 48.3493 356.055 47.976 357.932 47.976C359.788 47.976 361.431 48.3493 362.86 49.096C364.311 49.8213 365.442 50.8347 366.252 52.136C367.084 53.4373 367.5 54.92 367.5 56.584C367.5 58.2693 367.084 59.7733 366.252 61.096C365.442 62.3973 364.311 63.432 362.86 64.2C361.431 64.9467 359.788 65.32 357.932 65.32ZM357.932 63.72C359.426 63.72 360.77 63.4107 361.964 62.792C363.159 62.1733 364.098 61.3307 364.78 60.264C365.463 59.1973 365.804 57.9707 365.804 56.584C365.804 55.24 365.463 54.0347 364.78 52.968C364.098 51.9013 363.159 51.0693 361.964 50.472C360.77 49.8747 359.426 49.576 357.932 49.576C356.396 49.576 355.031 49.8747 353.836 50.472C352.642 51.0693 351.703 51.9013 351.02 52.968C350.359 54.0133 350.028 55.2187 350.028 56.584C350.028 57.9707 350.359 59.1973 351.02 60.264C351.703 61.3307 352.642 62.1733 353.836 62.792C355.052 63.4107 356.418 63.72 357.932 63.72ZM373.656 65V41.32H375.256V65H373.656ZM389.626 65.32C387.984 65.32 386.512 64.9467 385.21 64.2C383.93 63.432 382.917 62.3973 382.17 61.096C381.424 59.7947 381.05 58.312 381.05 56.648C381.05 54.9627 381.424 53.4693 382.17 52.168C382.938 50.8667 383.973 49.8427 385.274 49.096C386.597 48.3493 388.08 47.976 389.722 47.976C390.704 47.976 391.61 48.104 392.442 48.36C393.296 48.5947 394.064 48.936 394.746 49.384C395.45 49.832 396.058 50.3867 396.57 51.048C397.082 51.688 397.477 52.392 397.754 53.16L397.146 52.648V41.32H398.746V65H397.242L397.082 60.52L397.722 60.104C397.466 60.872 397.082 61.576 396.57 62.216C396.058 62.856 395.45 63.4107 394.746 63.88C394.042 64.3493 393.253 64.712 392.378 64.968C391.525 65.2027 390.608 65.32 389.626 65.32ZM389.914 63.688C391.322 63.688 392.581 63.3893 393.69 62.792C394.8 62.1733 395.674 61.3413 396.314 60.296C396.954 59.2293 397.274 58.0027 397.274 56.616C397.274 55.272 396.965 54.0667 396.346 53C395.728 51.9333 394.864 51.1013 393.754 50.504C392.645 49.9067 391.365 49.608 389.914 49.608C388.528 49.608 387.29 49.9067 386.202 50.504C385.136 51.1013 384.293 51.9333 383.674 53C383.056 54.0453 382.746 55.2507 382.746 56.616C382.746 57.96 383.056 59.1653 383.674 60.232C384.293 61.2987 385.136 62.1413 386.202 62.76C387.29 63.3787 388.528 63.688 389.914 63.688ZM419.173 65V48.36H420.773V65H419.173ZM419.973 44.84C419.503 44.84 419.141 44.712 418.885 44.456C418.629 44.2 418.501 43.848 418.501 43.4C418.501 42.9733 418.629 42.632 418.885 42.376C419.141 42.0987 419.503 41.96 419.973 41.96C420.442 41.96 420.805 42.088 421.061 42.344C421.317 42.6 421.445 42.952 421.445 43.4C421.445 43.8267 421.317 44.1787 421.061 44.456C420.805 44.712 420.442 44.84 419.973 44.84ZM429.755 65V48.36H431.291L431.451 52.392L431.131 52.36C431.409 51.6133 431.878 50.9093 432.539 50.248C433.222 49.5653 434.043 49.0213 435.003 48.616C435.985 48.1893 437.03 47.976 438.139 47.976C439.505 47.976 440.667 48.2533 441.627 48.808C442.587 49.3627 443.302 50.1733 443.771 51.24C444.262 52.2853 444.507 53.5547 444.507 55.048V65H442.907V55.208C442.907 53.9707 442.694 52.936 442.267 52.104C441.862 51.272 441.275 50.632 440.507 50.184C439.739 49.736 438.822 49.512 437.755 49.512C436.817 49.512 435.963 49.6827 435.195 50.024C434.427 50.344 433.745 50.7813 433.147 51.336C432.571 51.8907 432.123 52.5093 431.803 53.192C431.505 53.8533 431.355 54.5467 431.355 55.272V65H430.555C430.513 65 430.427 65 430.299 65C430.171 65 429.99 65 429.755 65ZM455.726 65V43.528H457.326V65H455.726ZM450.862 49.832V48.36H462.734V49.832H450.862ZM476.526 65.32C474.649 65.32 472.985 64.9467 471.534 64.2C470.105 63.4533 468.974 62.4187 468.142 61.096C467.331 59.7733 466.926 58.2693 466.926 56.584C466.926 54.92 467.331 53.4373 468.142 52.136C468.974 50.8347 470.105 49.8213 471.534 49.096C472.985 48.3493 474.649 47.976 476.526 47.976C478.382 47.976 480.025 48.3493 481.454 49.096C482.905 49.8213 484.035 50.8347 484.846 52.136C485.678 53.4373 486.094 54.92 486.094 56.584C486.094 58.2693 485.678 59.7733 484.846 61.096C484.035 62.3973 482.905 63.432 481.454 64.2C480.025 64.9467 478.382 65.32 476.526 65.32ZM476.526 63.72C478.019 63.72 479.363 63.4107 480.558 62.792C481.753 62.1733 482.691 61.3307 483.374 60.264C484.057 59.1973 484.398 57.9707 484.398 56.584C484.398 55.24 484.057 54.0347 483.374 52.968C482.691 51.9013 481.753 51.0693 480.558 50.472C479.363 49.8747 478.019 49.576 476.526 49.576C474.99 49.576 473.625 49.8747 472.43 50.472C471.235 51.0693 470.297 51.9013 469.614 52.968C468.953 54.0133 468.622 55.2187 468.622 56.584C468.622 57.9707 468.953 59.1973 469.614 60.264C470.297 61.3307 471.235 62.1733 472.43 62.792C473.646 63.4107 475.011 63.72 476.526 63.72ZM513.059 65.32C512.099 65.32 511.192 65.2027 510.339 64.968C509.507 64.712 508.739 64.36 508.035 63.912C507.331 63.4427 506.723 62.8773 506.211 62.216C505.72 61.5547 505.347 60.8507 505.091 60.104L505.795 60.648L505.635 65H504.099V41.32H505.699V52.552L505.123 53.128C505.4 52.3813 505.784 51.688 506.275 51.048C506.766 50.3867 507.363 49.832 508.067 49.384C508.771 48.936 509.55 48.5947 510.403 48.36C511.256 48.104 512.174 47.976 513.155 47.976C514.776 47.976 516.238 48.3493 517.539 49.096C518.84 49.8427 519.875 50.8773 520.643 52.2C521.411 53.5013 521.795 54.9947 521.795 56.68C521.795 58.3227 521.411 59.7947 520.643 61.096C519.896 62.3973 518.862 63.432 517.539 64.2C516.238 64.9467 514.744 65.32 513.059 65.32ZM512.899 63.72C514.328 63.72 515.576 63.4107 516.643 62.792C517.731 62.1733 518.584 61.3307 519.203 60.264C519.822 59.1973 520.131 57.992 520.131 56.648C520.131 55.2613 519.811 54.0453 519.171 53C518.552 51.9333 517.699 51.0907 516.611 50.472C515.523 49.8533 514.296 49.544 512.931 49.544C511.459 49.544 510.168 49.8533 509.059 50.472C507.95 51.0907 507.086 51.9333 506.467 53C505.848 54.0453 505.539 55.2507 505.539 56.616C505.539 58.0027 505.859 59.2293 506.499 60.296C507.139 61.3627 508.014 62.2053 509.123 62.824C510.232 63.4213 511.491 63.72 512.899 63.72ZM535.745 65.32C533.867 65.32 532.203 64.9467 530.753 64.2C529.323 63.4533 528.193 62.4187 527.361 61.096C526.55 59.7733 526.145 58.2693 526.145 56.584C526.145 54.92 526.55 53.4373 527.361 52.136C528.193 50.8347 529.323 49.8213 530.753 49.096C532.203 48.3493 533.867 47.976 535.745 47.976C537.601 47.976 539.243 48.3493 540.673 49.096C542.123 49.8213 543.254 50.8347 544.065 52.136C544.897 53.4373 545.313 54.92 545.313 56.584C545.313 58.2693 544.897 59.7733 544.065 61.096C543.254 62.3973 542.123 63.432 540.673 64.2C539.243 64.9467 537.601 65.32 535.745 65.32ZM535.745 63.72C537.238 63.72 538.582 63.4107 539.777 62.792C540.971 62.1733 541.91 61.3307 542.593 60.264C543.275 59.1973 543.617 57.9707 543.617 56.584C543.617 55.24 543.275 54.0347 542.593 52.968C541.91 51.9013 540.971 51.0693 539.777 50.472C538.582 49.8747 537.238 49.576 535.745 49.576C534.209 49.576 532.843 49.8747 531.649 50.472C530.454 51.0693 529.515 51.9013 528.833 52.968C528.171 54.0133 527.841 55.2187 527.841 56.584C527.841 57.9707 528.171 59.1973 528.833 60.264C529.515 61.3307 530.454 62.1733 531.649 62.792C532.865 63.4107 534.23 63.72 535.745 63.72ZM551.468 65V41.32H553.068V65H551.468ZM567.439 65.32C565.796 65.32 564.324 64.9467 563.023 64.2C561.743 63.432 560.729 62.3973 559.983 61.096C559.236 59.7947 558.863 58.312 558.863 56.648C558.863 54.9627 559.236 53.4693 559.983 52.168C560.751 50.8667 561.785 49.8427 563.087 49.096C564.409 48.3493 565.892 47.976 567.535 47.976C568.516 47.976 569.423 48.104 570.255 48.36C571.108 48.5947 571.876 48.936 572.559 49.384C573.263 49.832 573.871 50.3867 574.383 51.048C574.895 51.688 575.289 52.392 575.567 53.16L574.959 52.648V41.32H576.559V65H575.055L574.895 60.52L575.535 60.104C575.279 60.872 574.895 61.576 574.383 62.216C573.871 62.856 573.263 63.4107 572.559 63.88C571.855 64.3493 571.065 64.712 570.191 64.968C569.337 65.2027 568.42 65.32 567.439 65.32ZM567.727 63.688C569.135 63.688 570.393 63.3893 571.503 62.792C572.612 62.1733 573.487 61.3413 574.127 60.296C574.767 59.2293 575.087 58.0027 575.087 56.616C575.087 55.272 574.777 54.0667 574.159 53C573.54 51.9333 572.676 51.1013 571.567 50.504C570.457 49.9067 569.177 49.608 567.727 49.608C566.34 49.608 565.103 49.9067 564.015 50.504C562.948 51.1013 562.105 51.9333 561.487 53C560.868 54.0453 560.559 55.2507 560.559 56.616C560.559 57.96 560.868 59.1653 561.487 60.232C562.105 61.2987 562.948 62.1413 564.015 62.76C565.103 63.3787 566.34 63.688 567.727 63.688ZM586.384 65.32C585.872 65.32 585.477 65.1813 585.2 64.904C584.944 64.6267 584.816 64.232 584.816 63.72C584.816 63.272 584.954 62.8987 585.232 62.6C585.509 62.28 585.893 62.12 586.384 62.12C586.896 62.12 587.28 62.2587 587.536 62.536C587.813 62.8133 587.952 63.208 587.952 63.72C587.952 64.168 587.813 64.552 587.536 64.872C587.258 65.1707 586.874 65.32 586.384 65.32Z" fill="black" fill-opacity="0.8"/>
</svg>
