<svg width="36" height="37" viewBox="0 0 36 37" fill="none" xmlns="http://www.w3.org/2000/svg">
<path d="M28.5 5C29.2956 5 30.0587 5.31607 30.6213 5.87868C31.1839 6.44129 31.5 7.20435 31.5 8V29C31.5 29.7956 31.1839 30.5587 30.6213 31.1213C30.0587 31.6839 29.2956 32 28.5 32H7.5C6.70435 32 5.94129 31.6839 5.37868 31.1213C4.81607 30.5587 4.5 29.7956 4.5 29V8C4.5 7.20435 4.81607 6.44129 5.37868 5.87868C5.94129 5.31607 6.70435 5 7.5 5H28.5ZM27.75 28.25V20.3C27.75 19.0031 27.2348 17.7593 26.3178 16.8422C25.4007 15.9252 24.1569 15.41 22.86 15.41C21.585 15.41 20.1 16.19 19.38 17.36V15.695H15.195V28.25H19.38V20.855C19.38 19.7 20.31 18.755 21.465 18.755C22.022 18.755 22.5561 18.9762 22.9499 19.3701C23.3438 19.7639 23.565 20.298 23.565 20.855V28.25H27.75ZM10.32 13.34C10.9883 13.34 11.6293 13.0745 12.1019 12.6019C12.5745 12.1293 12.84 11.4883 12.84 10.82C12.84 9.425 11.715 8.285 10.32 8.285C9.64768 8.285 9.00289 8.55208 8.52748 9.02748C8.05208 9.50289 7.785 10.1477 7.785 10.82C7.785 12.215 8.925 13.34 10.32 13.34ZM12.405 28.25V15.695H8.25V28.25H12.405Z" fill="#1929FE"/>
</svg>
