<svg width="36" height="37" viewBox="0 0 36 37" fill="none" xmlns="http://www.w3.org/2000/svg">
<mask id="mask0_254_87" style="mask-type:alpha" maskUnits="userSpaceOnUse" x="0" y="0" width="36" height="37">
<rect y="0.5" width="36" height="36" fill="#D9D9D9"/>
</mask>
<g mask="url(#mask0_254_87)">
<path d="M6 30.5C5.175 30.5 4.46875 30.2063 3.88125 29.6188C3.29375 29.0313 3 28.325 3 27.5V9.5C3 8.675 3.29375 7.96875 3.88125 7.38125C4.46875 6.79375 5.175 6.5 6 6.5H30C30.825 6.5 31.5313 6.79375 32.1188 7.38125C32.7063 7.96875 33 8.675 33 9.5V27.5C33 28.325 32.7063 29.0313 32.1188 29.6188C31.5313 30.2063 30.825 30.5 30 30.5H6ZM30 12.5L18.7875 19.5125C18.6625 19.5875 18.5312 19.6438 18.3937 19.6813C18.2562 19.7188 18.125 19.7375 18 19.7375C17.875 19.7375 17.7438 19.7188 17.6063 19.6813C17.4688 19.6438 17.3375 19.5875 17.2125 19.5125L6 12.5V27.5H30V12.5ZM18 17L30 9.5H6L18 17ZM6 12.875V10.6625V10.7V10.6813V12.875Z" fill="#1929FE"/>
</g>
</svg>
