<svg width="200" height="200" viewBox="0 0 200 200" fill="none" xmlns="http://www.w3.org/2000/svg">
  <defs>
    <linearGradient id="logoGrad" x1="0%" y1="0%" x2="100%" y2="100%">
      <stop offset="0%" stop-color="#3B82F6" />
      <stop offset="100%" stop-color="#8B5CF6" />
    </linearGradient>
    <filter id="logoGlow" x="-10%" y="-10%" width="120%" height="120%">
      <feGaussianBlur stdDeviation="8" result="blur" />
      <feComposite in="SourceGraphic" in2="blur" operator="over" />
    </filter>
  </defs>
  <rect width="200" height="200" rx="40" fill="#0F172A" stroke="#FFFFFF" stroke-opacity="0.05" stroke-width="2" />
  <g transform="translate(100, 100)" filter="url(#logoGlow)">
    <path d="M -35 -35 H 35 C 37.8 -35 40 -32.8 40 -30 V 20 C 40 22.8 37.8 25 35 25 H -5 L -20 40 L -20 25 H -35 C -37.8 25 -40 22.8 -40 20 V -30 C -40 -32.8 -37.8 -35 -35 -35 Z" stroke="url(#logoGrad)" stroke-width="3.5" fill="#000000" fill-opacity="0.3" />
    <circle cx="0" cy="-5" r="12" fill="#3B82F6" />
    <circle cx="-18" cy="-5" r="5" fill="#FFFFFF" fill-opacity="0.8" />
    <circle cx="18" cy="-5" r="5" fill="#FFFFFF" fill-opacity="0.8" />
    <line x1="-18" y1="-5" x2="0" y2="-5" stroke="#FFFFFF" stroke-opacity="0.5" stroke-width="1.5" />
    <line x1="18" y1="-5" x2="0" y2="-5" stroke="#FFFFFF" stroke-opacity="0.5" stroke-width="1.5" />
  </g>
</svg>
